<mxfile host="65bd71144e">
    <diagram id="4ApZs3ESX_rJ877tGElo" name="docs">
        <mxGraphModel dx="1509" dy="1160" grid="1" gridSize="10" guides="1" tooltips="1" connect="1" arrows="1" fold="1" page="1" pageScale="1" pageWidth="1600" pageHeight="1240" math="0" shadow="0">
            <root>
                <mxCell id="0"/>
                <mxCell id="1" parent="0"/>
                <mxCell id="0lQ9qycPSiAqUX2RLHM0-32" value="" style="rounded=1;whiteSpace=wrap;html=1;fontSize=28;fontFamily=Roboto Slab;fontSource=https%3A%2F%2Ffonts.googleapis.com%2Fcss%3Ffamily%3DRoboto%2BSlab;container=1;labelBackgroundColor=none;fillColor=#808285;fontColor=#FFFFFF;strokeColor=none;" parent="1" vertex="1">
                    <mxGeometry x="348" y="310" width="323" height="200" as="geometry"/>
                </mxCell>
                <mxCell id="agbY6gUAcdcyBiqxeYTd-104" value="Synchronize data modalities &amp;amp; exploratory analysis" style="rounded=1;whiteSpace=wrap;html=1;fontSize=28;fontFamily=Roboto Slab;fontSource=https%3A%2F%2Ffonts.googleapis.com%2Fcss%3Ffamily%3DRoboto%2BSlab;container=1;labelBackgroundColor=none;fillColor=#808285;fontColor=#FFFFFF;strokeColor=none;" parent="0lQ9qycPSiAqUX2RLHM0-32" vertex="1">
                    <mxGeometry x="41.5" width="240" height="200" as="geometry"/>
                </mxCell>
                <mxCell id="0lQ9qycPSiAqUX2RLHM0-21" value="Visualize Stimulus&lt;br&gt;Waveform and&lt;br&gt;Neurophysiology&lt;br&gt;Recording" style="rounded=1;whiteSpace=wrap;html=1;fontSize=28;fontFamily=Roboto Slab;fontSource=https%3A%2F%2Ffonts.googleapis.com%2Fcss%3Ffamily%3DRoboto%2BSlab;container=1;labelBackgroundColor=none;fillColor=#808285;fontColor=#FFFFFF;strokeColor=none;verticalAlign=middle;" parent="1" vertex="1">
                    <mxGeometry x="686" y="310" width="323" height="200" as="geometry"/>
                </mxCell>
                <mxCell id="0lQ9qycPSiAqUX2RLHM0-24" value="&lt;br&gt;&amp;nbsp;Export &amp;amp; publish&lt;br&gt;&lt;br&gt;&amp;nbsp;&lt;br&gt;&amp;nbsp;" style="rounded=1;whiteSpace=wrap;html=1;fontSize=28;fontFamily=Roboto Slab;fontSource=https%3A%2F%2Ffonts.googleapis.com%2Fcss%3Ffamily%3DRoboto%2BSlab;container=1;labelBackgroundColor=none;fillColor=#808285;fontColor=#FFFFFF;strokeColor=none;verticalAlign=top;" parent="1" vertex="1">
                    <mxGeometry x="1024" y="310" width="323" height="200" as="geometry"/>
                </mxCell>
                <mxCell id="0lQ9qycPSiAqUX2RLHM0-25" value="" style="triangle;whiteSpace=wrap;html=1;fillColor=#FFFFFF;rounded=1;strokeColor=#808285;strokeWidth=2;fontSize=28;" parent="1" vertex="1">
                    <mxGeometry x="994" y="330" width="60" height="160" as="geometry"/>
                </mxCell>
                <mxCell id="8LHBV1n6eviTjSit51TO-1" value="Create project &amp;amp;&lt;br style=&quot;font-size: 28px&quot;&gt;stimulation protocol&lt;br&gt;&lt;br&gt;&amp;nbsp;" style="rounded=1;whiteSpace=wrap;html=1;fontSize=28;fontFamily=Roboto Slab;fontSource=https%3A%2F%2Ffonts.googleapis.com%2Fcss%3Ffamily%3DRoboto%2BSlab;container=1;labelBackgroundColor=none;fillColor=#808285;fontColor=#FFFFFF;strokeColor=none;verticalAlign=center;" parent="1" vertex="1">
                    <mxGeometry x="10" y="10" width="323" height="200" as="geometry"/>
                </mxCell>
                <mxCell id="2" value="" style="shape=image;verticalLabelPosition=bottom;labelBackgroundColor=#ffffff;verticalAlign=top;aspect=fixed;imageAspect=0;image=data:image/png,iVBORw0KGgoAAAANSUhEUgAAAfQAAAFACAYAAABKjY7pAAAAAXNSR0IB2cksfwAAAAlwSFlzAAALEwAACxMBAJqcGAAAFiRJREFUeJzt3XuMHed5H+CTS+3EzoX1JW3ixqYTIEaCXtgETuq6jek0SFugMYTEbS5NUdYtmtRNCyJFAsQ2WqIIjAauXUW+KDLJ5VqyZEWyWxWyFTmRVTp2HMeRAtqWRIrkHlKURcriXZR4WXJ3OmdJytJyudzLzPzOzDwP8EH/EOT53nnn+2nmfGdmMAAAAAAAAAAAAAAAAAAAAAAAAAAAAAAAAAAAAAAAAAAAAPIm9rxpcMM9L05/DABgubbuffNgYupDg8nh4cHkvgvlf7862LzrtemPBQAsxY071w62TW27GOLzx/DRwQd2vjz9EQGAq/nQV/5qeUX+voWD/AWhflP6owIAC9k6fMdgYnj02mF+aUzs+dH0RwYALtu898cG24Y7lhzkzwX61ET6owMAg03fPJjY+1tlmJ9ZdphfvO1+crDpgZekZwEA/bVl798sg/yLKwvyF9x2f1N6KgDQQ6u9Kp8f6OXfBQA06P27vq8M8vsqCfJv3Hb/SHpaANAX31ReSf/nue+8Kw3zuY1xn0pPDgC6b8vwxwfb9j1QeZBfHtuGd6SnCADd9Z4vv7S8ev792oL88hj9dh0AqMHogS+jx7PWHeYTw6cGNz3yvenpAkD3jHad1x3kFzfDnSr/x+Efp6cLAN1ycQf7pxsJ823DnXO/YwcAKjQx9c8G2/YdaejK/O7BBx/+jvSUAaA7mtr4dvH78gPlVfk/SU8ZALpl6543lCG7u5lb7FP/Z3DDnlempwwA3XHDPS8ug/x3BpPDc/UH+b5nBlum3p6eMgB0y4d3ryuD/Ks2vgFAK41eqDL125W9UOXaYX67jW8AUKXNu147mBj+SSNBPjk8Pdg6/I/pKQNAt2yZettg29SJRsJ8YupPBx+e+qH0lAGgO2564LvndpY3c3v9zGBi+M7B6I1sAEBFtux9Yxmy+xoK8y/a+AYAVRtdKTfxc7TRe9G3Tm0cuCoHgArduPd7BpNT9zR0Vf7xwU1Tr05PGQC6ZWLvT5VXzAfr3/Q2PDrYsvdfp6cLAN2zdfifGrkqH71QxXvLgXFVFMXacmwvqrU9PS96YvOe9eVV83S9t9enTpRX5b+anirQYzUEdZU2pOtDB2zd9bqavyu/b3DjzrXpaQI9UYbjXel0rkK6jrTQ+x5+WT1Bvu/IYOvw36anB3RUOnAD7krXnBaYGD5R8ca3WwYffPivp6cFdEQ6ScdR+pgwpiamPlHZd+WuyoHVKC5uTGMZ0seMMTKx999X8F35x12VA8uWDsOuSR9PwkZBPDk8v/Kr8j3/Ij0FoCXSgdcX6eNM0Ojd48v/rvyPBlseeU36owNjrBjvn4t1Xvr4s0zv+fJLB1umfnlVf8eW4U8uI8i/Mtg6fEtFnx7oknSAsbB0X3ANNz36isHE1LvLq+vjl4L2f67q7xv9ZvxaP0XbMvX2ij490AVlVuxPhxVLc+HChQ3pfmGeD+79/sHE3veXAfvMFaG7ec/fW/Hfu3XqH1z9qnzqNpvegFGAr08HE6uT7iEGo81r31Fehb+nvJI+s8hu8x2D1byOdNvwhnlB/qeDzcO/Xd0kgFYpBHgnpfuq1yaGv16G7aElfce96u/T9/7q3L+3ee+PVfTpgbYo1/o16bChGele652J4b8rg3z/8n5Ktu+h9McGWqRc20+kw4WMdO/1wpa91w0mh3tW/KCXzXt/IT0FYEwVApxLZmdn96f7sbNGbz/bNrx31U9umxw+kp4KMEbSwcH4Svdm57x/1/cNJvZtXX2QP294rjr0WzooaI90r3bCB3a+fO734xPDZysN84s73nelpwc0qFyXd6SDgXZK926rbXrgJWWIv7McT1ce5C+4St/75vRUgRqlg4BuSPdxK/3zO77l0s/Cqn0H+dWv0j+anjJQsfTiT/eke7p1JoZvnbsN3kSQf2Nz3Mn0tIEKpBd8ui3d362x9dG/M5icur/ZIH/emJj66XQJgBVIL/L0R7rXx96Nj76qvCq/JRbkz32PPrUpXQpgidILO/2U7vux9b4vfHsZov9tMDk8FQ/zi9+j354uCbCI9GIO6XNgLE1M/dKyH9Vaf6Dfmy4LME+5ht6VXsThsvT5MFYmdv9EeUX+uXh4LzRGD6wBxkN64Yb5ZmZmJtPnxVj40O4fmLulnQ7txYbfokNWesGGxaTPj7ibHn3FYNvUjfGwXvTKfPj0YMvwZ9Olgl4q18mN6YUarqXXL2e54Z4Xl0H5rtqf8LbqMTw2+PDU69Plgt5JL9CwHPP79/jx42sW+nMzMzObAqdTfUavJJ0cDvNhfY0xenjNTXt+MF0u6I1yvdvU8DoMYyN9/i3LxJ4fXWzD27d8ZF+xklFTmN87+N1d35kuGfRCeiGFcZQ+Lxd0w55XlgF5c5Uhvtj4psl9M6v7znzq3emSQS+kF0xoi/S5Omfr8DcX+p68jiCvJNxHXwcA9SnXpg3pxRHaanp6el3jJ+2W4U+WV+U7U0G+0Pjmj+ybvfpV+fDo3GcG6lGuRdenF0PoijNnzqyt/aS9aerVg21TH2vq9nol37tvG+4bbN79w7XXBvoovfBBl60k2C9cuLDoXbJnpmeKdzx4rHjJLfsXDM10gF892Id/PvjAzpfXsIxBvzW1oAEXXe1cnJ2dXdLjkcs/V0zuebp41R0H4uG83PGW+54szlyYWbQOwDLVumIBtfjiU2eL19/9RDyYVzJ++4FjV8zHY3hhFQJrELBKB589X/zyZ5+Kh/JKxotu3lfcOnVq0fml10VolYbWHaBCo9vT/33H8eKlH90fD+aVjJfd9ljx2UNnljTXzj2dD6pW83oD1OT24ali7Z3t+5788viBOx8v9pycXlUN0usnjIXCy1Kglf7fodPF6z7xeDyQVzPe+KmDxdGzFyqvTXpdhUaVPb/gyyaA8Xby3Eyx8c+PxMN4teNf/clTjdQr8vAeaEojZxFQqdPnZ4r3PnSi+Gu3PxYP49WOd3/5eOP1m52dPZFee6EyjZ9BwKq1+ffk88e33bKvuOuxZ9P13JFei2HFCs9bh1bafXK6+PGW/p58/njl7Y8VXzp8Nl3S56TXZVi29EkDLN/o9+Rd+J788viR//21Yv+p8+myLii9RsM1lX26PX2iAMsz+j35b3zpaDyAqxw/9YeHihPnZtKlXVR6vYarSp8cwPJ97skzxQ+1/Gdo88eGzzWzk70K58+fX59eu+E5ZU9Opk8KYHkePn6uuO4zT8bDt+qR2Mm+WnbCMxbSJwKwPMfPXSh+7QuHi28dg/CtcnznrfuLuw9kd7KvVno9p6cKO9ihdX5/18niFR9r/+/J54/RI2i/euxcuryVSK/t9Ey64YHlGb3W9O/+36/Fg7eO8aZ7Ds7ddeiS9BpPT6QbHVi6x585X/zLlr7WdCnjbZ8/XFyYmU2XuRbptZ4OK/vrunSDA0szelzrux48Fg/cOsf/euhEusy1mpmZmUyv+3RQurGBpRk9rnXb7qeLv9GBx7VebXzXrfuLP37idLrUjUiv/XRMuqGBpRm91rSr35NfHqN3mO880Y3Nb0uVzgA6It3IwLU9emK6+LnPfD0etnWPN3zyieLwmW5tfluqdBbQcukGBhZ3pAy3t//ZkeJFN+fDtu7xlvuenHs8bV+l84AWSzcvcHXnLswWv/uVE8Wa2/bHg7aJ8Zt/cXRub0DfpXOBlil7Zm26aYGru314qnj1nd3d8DZ/bH706XTJx8b09PS6dEbQIumGBRb2wJGzc98hpwO2qTG6+7D90Jl02cdOOiNoiXSjAlcabQIbPTwlHbBNjtFO9j0np9OlH0uzs7M70lnBmEs3KXCl9z50Yu431+mAbXL8o3sPFcfO9nMn+1K59c5VpZsTeKHR+8n/1l3d/j35QmP0BjiWLp0djJl0QwLfsOvEdPHz93f/9+Tzx1+5eV/xew+fTJe/lbxHnTllL3T7QcjQEk+evlD8m8/163vyy2P0DvNPf60fj3GtUzpPCEs3IPTd6EEp//UvjxUvuaVf35NfHq+980DxyPF+Pca1TulMISTdeNB3H9//TPGaHv2efP5446cOzj3pjmp5Q1vPlMd8XbrpoK8OPnu++Nk/fjIeqMnx1vu/Pve0O+oxOzu7P50zNCTdbNBHZy89rvW7e/YztPnjnQ8eSx+KXiiv1Dems4aaFa7OoXE37jzZq8e1Xm1M7PYY1yadOXNmbTpzqFG6waBPPnPwdPGDH388HqTpMdrJft9BO9kT0plDjdLNBX3w0LFzxS9s79/vyRcao53so3qQk84dapJuLOiD3Seni2+7JR+m6fETdz9hJ/sYSOcONUg3FfTJ//jK8XigJsevfPYpO9nHSDp/qFi6oaBPLszM9vJ57KPx7i8fT5efedL5Q8XSDQV985dHzs49pzwdsE2N0ea3ez3GdWylM4gKpZsJ+ui3/uJoPGibGKPNb6OXyzC+0hlEhdLNBH10+vzMXNilA7fO8dP3HiqOn7P5bdylM4gKpZsJ+mr0fvN06NY1fuNLR9PlZRnSOURF0o0Effbrf3YkHr5VjtHegFunTqXLyjKlc4iKpBsJ+uzU9Ezx/R259b7mtv3F9kNn0iVlBdI5REXSjQR9N3r8aTqMVztG+wEetfmttdI51Etl3TdVcOzWzfs7gbBf+8LheCivdLz5Dw8Wx87a/NZmqUzrlbLO+9MHGqhfW2+9v+3zh4vzM5781nbprOuksq5r0wcWyGjTrfcX3byv+MAjJ9MloyLnz59fn86/TiiEOHBJG269v+y2x+ZeAUu3pLOw1dIHDxg/o1vv3/sHj8VD+2pj7Z0HiqmnbX7rqnQutkpZrzXpAwaMt7sPPBsP7oXG6+9+ojjstaedNjMzszGdk2OvrNNd6QMFtMcvbv96PMCfP/7pHx0qzlyYSZeFBqTzcmylDwzQTk+VV8Iv/9h43Hr/Lx7j2jvp7Bwr6YMBtN8dw2eiQf7tt+wr/qD8DPRPOkPHQvogAN3y1vszt95ffeeBYsfRc+npE5TO05h04YFuGt16/57bm731/g8/dbA4YvNb76VztXHlnE+kiw5026e/1twDZ0Z3BM5d8OQ3LkpnbCPKea5LFxroj//whfpfs/qOB4+lp8mYSWdt7dIFBvrn9PmZuTea1RXmk3ueTk+RMZTO29qUc7suXVygv+6t4db7d926v7jfY1y5itnZ2R3p7K1cuqgAI1U+cGb0dreHj9vJzuLS+VupdDEBLhs9erWK16y+4ZNPFIdOn09PhxZIZ3AlynlsShcSYL7Pf/1M8a2rCPPRG93sZGep0lm8aukCAizmXQ8es/mNRqTzeFXSxQO4ltEV9us+8fiSg/xVdxwoHjhyNv2xaaF0Jq9YunAAS/VgGdBLCfO//8mDc0+cg5VI5/KKpIsGsFzvfejEomH+K599Kv0Rabnp6el16XxelnTBAFbqZz59aMEw/50dx9MfjQ5oVaCniwWwGsOnp68I84/uPZX+WHREOqOXLF0ogCp8cOfJuSB/zZ0Hii8dtvmN6qRzeknSRQKo0u89fLJ49vxM+mPQMemsvqZ0gQCgDdJ5vah0cQCgLdKZvah0cQCgLdKZfVXpwgBA26Sz+wrpggBAG6Xz+wrpggBAS21IZ/hz0pUAgDZL5/hz0oUAgDZL5/icdBEAoAvSeS7QAaACwhwAOkCgA0BHCHQA6IBUmE+mJw4AXZIKdACgQgIdADpCoANABwh0AOgAgQ4AHSDQAaADBDoAdMM6oQ4A7Xe9QAeADhDoANABiUBfl540AHRN44F+KdQBgApFAl2oA0C1BDoAdEAs0IU6AFQnHeg2yAFABaKBfinUAYBVSuf5nHQRAKDt0ln+nHQhAKDN0jn+AuliAEBLNf9ylmtJVwQA2iad3VeVLgwAtEk6txeVLg4AtMT+dGZfU7pCADDu0lm9ZOlCAcA4S+f0sqSLBQDjKJ3PK5IuGgCMmTXpbF6x8sNvSlcPAMbAdelMXrVyEmvTVQSAoPXpLK5UupoA0LR09tYmXVgAaFo6e2uTLiwAhEymM7hy6YoCQND16RyuVLqaABA2mc7iyqQrCQBp6SyuTLqQAJCWzuLKpAsJAGnpLK5MupAAkJbO4sqkCwkAaeksrky6kACQlM7hyqQLCQBp6SyuTLqQAJCUzuFKpYsJACnpDK5cuqAAkJDO31qkiwoATUtnby3Kea1NFxYAmpTO3tqUc7s+XVwAaEo6d2tVzu+udIEBoAnpzK1dOceN6SIDQN3SeduIwu13ADounbWNKee6IV1sAKhLOmcbVc53TbrgwNix14YuuD6dsRHpqgPjw/pAFySydGykiw+MB2sDXZDI0bGSPgBA3rw1wUOpaKVUjo6V9EEAsqwHdMCOVIaOnbIY29NHA8iYtxZA66Syc6ylDwrQvOed/+vSnwVWIpmbYy19YIBmOfdpu2Rmjr30wQGa47yn5TYE47I90kcJqJ/znTZLZmTrpA8WUKvrnOu0WTIfWyt90IDqOcdpu1Qmtl7R3mc+b1xgLpPpDwVJC5wT0DrNpF+HpQ/gcnRpLlAl5wJtV0/C9VT6YC6mS3OBqjkH6ILVpxhXKOu6MX1gL1vlPKDrtut/umI16z1LUIRe7lDxHKCL1uh7OuSKvVE0oMYDuqnGz7yjxs8NjVpiz3v0K61R19rPMpXHYn1bDmKF/QcJ6/U7XVTTkk8fpJsXlkuf02VVr/H0ULqJ4Vr0OF1XxVoOzyl8x84Yqqi3YaxV0eewoHRzg56mT6rud7iqdLPTL3qYPqmj32HJ0icA3aVv6Zs6ex6WJX0y0B36lR5a30Tfw7Klzwzaq8Ee3Z6eK1zWVN/DipV9uiF9otAaOwL9CeNgbdO9D6uSPmMYa+v1JX2V6n2oRPoEYnyke3EkXQP6K937UJmyn9ekTyhy0v33fOXHuT5dD3pne7rvoTZlg9+VPsNoRrrXFlLY80Fzrk/3OzSubPxN6TOPaqV76lrS9aHTNqT7G8ZKeVKsLcdk+sxk+dK9s1TpOtEt6X6GVisufj/vRTNjJN0Ty5WuF603me5h6LXC/wTUYU36uK5U+dnXpYtHu6R7FliG4uIiv5Jd0ddVvHaMvfSxqkq6joy/dI8CDUsvOg3alK511Qp3b1jYunRvAg1KrzhNSte6bun6MjY2pnsRaFDRo4fnpGvdtHS9yUn3HhCQXniakK5xUtHDfRF9lu43ICS9+NQpXdtxlD4m1Gp/ur+AoLoWliL3iNzW/vysSZeOER2R7idgDDS9oFT17z3PdXXWpw/KGm6v4bjQjMl0/wBjZBWLydom/+0KpsoSrKIfaFC6T4Axtcy1ZH3689KM8lhvrCOMWLl0TwAtYCHhWgqPmU3xKlMA6lX4Dr4uO9LHFoAeK1zFr8am9PEDgEWlk3JMrU0fFwCoTDpVG3AiXWMAiCmDcEPRzofgbEjXDgBaqwzS6xsOblfeAAAAAAAAAAAAAAAAAAAAAAAAAAAAAAAAAAAAAAAAAAAAAAAAAAAAAAAAAAAAAAAAAAAAAAAAAAAAAAAAAAAAAAAAAAAAAAAAAAAAAAAAAAAAAAAAAAAAAAC99P8B6vs9DYcRkKkAAAAASUVORK5CYII=;" parent="8LHBV1n6eviTjSit51TO-1" vertex="1">
                    <mxGeometry x="91.18" y="108" width="140.63" height="90" as="geometry"/>
                </mxCell>
                <mxCell id="3o6Un45pMF5JGRha6qpf-5" value="Enter metadata &lt;br&gt;into pipeline" style="rounded=1;whiteSpace=wrap;html=1;fontSize=28;fontFamily=Roboto Slab;fontSource=https%3A%2F%2Ffonts.googleapis.com%2Fcss%3Ffamily%3DRoboto%2BSlab;container=1;labelBackgroundColor=none;fillColor=#808285;fontColor=#FFFFFF;strokeColor=none;" parent="1" vertex="1">
                    <mxGeometry x="348" y="10" width="323" height="200" as="geometry"/>
                </mxCell>
                <mxCell id="3o6Un45pMF5JGRha6qpf-4" value="" style="triangle;whiteSpace=wrap;html=1;fillColor=#FFFFFF;rounded=1;strokeColor=#808285;strokeWidth=2;fontSize=28;" parent="1" vertex="1">
                    <mxGeometry x="318" y="30" width="60" height="160" as="geometry"/>
                </mxCell>
                <mxCell id="3o6Un45pMF5JGRha6qpf-6" value="Collect session&amp;nbsp;&lt;br&gt;recordings" style="rounded=1;whiteSpace=wrap;html=1;fontSize=28;fontFamily=Roboto Slab;fontSource=https%3A%2F%2Ffonts.googleapis.com%2Fcss%3Ffamily%3DRoboto%2BSlab;container=1;labelBackgroundColor=none;fillColor=#808285;fontColor=#FFFFFF;strokeColor=none;verticalAlign=middle;" parent="1" vertex="1">
                    <mxGeometry x="686" y="10" width="323" height="200" as="geometry"/>
                </mxCell>
                <object label="" width="10" id="wCUkDDBLQIwaV8VIMWGC-7">
                    <mxCell style="edgeStyle=orthogonalEdgeStyle;html=1;exitX=0.5;exitY=1;exitDx=0;exitDy=0;endArrow=none;endFill=0;strokeColor=#808285;strokeWidth=3;jumpSize=10;comic=0;orthogonal=0;rounded=1;startArrow=none;startFill=0;shape=flexArrow;fillColor=#FFFFFF;width=15;entryX=0.5;entryY=0;entryDx=0;entryDy=0;fontSize=28;" parent="1" source="3o6Un45pMF5JGRha6qpf-6" target="wCUkDDBLQIwaV8VIMWGC-2" edge="1">
                        <mxGeometry relative="1" as="geometry"/>
                    </mxCell>
                </object>
                <mxCell id="65jm_7ulDt7xcRRwg3B_-6" value="" style="triangle;whiteSpace=wrap;html=1;fillColor=#FFFFFF;rounded=1;strokeColor=#808285;strokeWidth=2;fontSize=28;" parent="1" vertex="1">
                    <mxGeometry x="656" y="330" width="60" height="160" as="geometry"/>
                </mxCell>
                <mxCell id="0lQ9qycPSiAqUX2RLHM0-31" value="" style="triangle;whiteSpace=wrap;html=1;fillColor=#FFFFFF;rounded=1;strokeColor=#808285;strokeWidth=2;fontSize=28;" parent="1" vertex="1">
                    <mxGeometry x="656" y="30" width="60" height="160" as="geometry"/>
                </mxCell>
                <mxCell id="wCUkDDBLQIwaV8VIMWGC-2" value="Enter metadata of&lt;br&gt;&amp;nbsp;fiber location" style="rounded=1;whiteSpace=wrap;html=1;fontSize=28;fontFamily=Roboto Slab;fontSource=https%3A%2F%2Ffonts.googleapis.com%2Fcss%3Ffamily%3DRoboto%2BSlab;container=1;labelBackgroundColor=none;fillColor=#808285;fontColor=#FFFFFF;strokeColor=none;" parent="1" vertex="1">
                    <mxGeometry x="10" y="310" width="323" height="200" as="geometry"/>
                </mxCell>
                <mxCell id="wCUkDDBLQIwaV8VIMWGC-3" value="" style="triangle;whiteSpace=wrap;html=1;fillColor=#FFFFFF;rounded=1;strokeColor=#808285;strokeWidth=2;rotation=90;fontSize=28;" parent="1" vertex="1">
                    <mxGeometry x="142.91" y="240" width="60" height="160" as="geometry"/>
                </mxCell>
                <mxCell id="0lQ9qycPSiAqUX2RLHM0-33" value="" style="triangle;whiteSpace=wrap;html=1;fillColor=#FFFFFF;rounded=1;strokeColor=#808285;strokeWidth=2;fontSize=28;" parent="1" vertex="1">
                    <mxGeometry x="318" y="330" width="60" height="160" as="geometry"/>
                </mxCell>
                <mxCell id="wCUkDDBLQIwaV8VIMWGC-21" value="" style="shape=image;verticalLabelPosition=bottom;labelBackgroundColor=#ffffff;verticalAlign=top;aspect=fixed;imageAspect=0;image=data:image/png,iVBORw0KGgoAAAANSUhEUgAAAggAAAIICAYAAAAL/BZjAAAAAXNSR0IArs4c6QAAIABJREFUeF7snXdc1Pmd/weGMpRh6L0jvStdqtKRLii21d1kTe6SXJLNpdzlLu7lcsldcpvc5ZdN3NtmYdVRKaIIKgxN6gAC0jtIh2GoA0z7PT4ss2GNOsx3hqnv+Ud3/bT38/35fj+v76e8P0rXrl3z1tfXn8HBDwgAASAABIAAEAACOByORqOZKD148MA0KSlpGogAASAABIAAEAACQAARQNoABAL0BSAABIAAEAACQOBrBEAgQIcAAkAACAABIAAE/oYACAToFEAACAABIAAEgAAIBOgDQAAIAAEgAASAAH8CMIPAnxGkAAJAAAgAASCgcARAICicy8FgIAAEgAAQAAL8CYBA4M8IUgABIAAEgAAQUDgCIBAUzuVgMBAAAkAACAAB/gRAIPBnBCmAABAAAkAACCgcARAICudyMBgIAAEgAASAAH8CIBD4M4IUQAAIAAEgAAQUjgAIBIVzORgMBIAAEAACQIA/ARAI/BlBCiAABIAAEAACCkcABILCuRwMBgJAAAgAASDAnwAIBP6MIAUQAAJAAAgAAYUjAAJB4VwOBgMBIAAEgAAQ4E8ABAJ/RpACCAABIAAEgIDCEQCBoHAuB4OBABAAAkAACPAnAAKBPyNIAQSAABAAAkBA4QiAQFA4l4PBQAAIAAEgAAT4EwCBwJ8RpAACQAAIAAEgoHAEQCAonMvBYCAABIAAEAAC/AmAQODPCFIAASAABIAAEFA4AiAQFM7lYDAQAAJAAAgAAf4EQCDwZwQpgAAQAAJAAAgoHAEQCArncjAYCAABIAAEgAB/AiAQ+DOCFEAACAABIAAEFI4ACASFczkYDASAABAAAkCAPwEQCPwZQQogAASAABAAAgpHAASCwrkcDAYCQAAIAAEgwJ8ACAT+jCAFEAACQAAIAAGFIwACQeFcDgYDASAABIAAEOBPAAQCf0aQAggAASAABICAwhEAgaBwLgeDgQAQAAJAAAjwJwACgT8jSAEEgAAQAAJAQOEIgEBQOJeDwUAACAABIAAE+BMAgcCfEaQAAkAACAABIKBwBEAgKJzLwWAgAASAABAAAvwJgEDgzwhSAAEgAASAABBQOAIgEBTO5WAwEAACQAAIAAH+BEAg8GcEKYAAEAACQAAIKBwBEAgK53IwGAgAASAABIAAfwIgEPgzghRAAAgAASAABBSOAAgEhXM5GAwEgAAQAAJAgD8BEAj8GUEKIAAEgAAQAAIKRwAEgsK5HAwGAkAACAABIMCfAAgE/owgBRAAAkAACAABhSMAAkHhXA4GAwEgAASAABDgTwAEAn9GkAIIAAEgAASAgMIRAIGgcC4Hg4EAEAACQAAI8CcAAoE/I0gBBIAAEAACQEDhCIBAUDiXg8FAAAgAASAABPgTAIHAnxGkAAJAAAgAASCgcARAICicy8FgIAAEgAAQAAL8CYBA4M8IUgABIAAEgAAQUDgCIBAUzuVgMBAAAkAACAAB/gRAIPBnBCmAABAAAkAACCgcARAICudyMBgIAAEgAASAAH8CIBD4M4IUQAAIAAEgAAQUjgAIBIVzORgMBIAAEAACQIA/ARAI/BlBCiAABIAAEAACCkcABILCuRwMBgJAAAgAASDAnwAIBP6MIAUQAAJAAAgAAYUjAAJB4VwOBgMBIAAEgAAQ4E8ABAJ/RpACCAABIAAEgIDCEQCBoHAuB4OBABAAAkAACPAnAAKBPyNIAQSAABAAAkBA4QiAQFA4l4PBQED6CXR2dqq1trZGWlpanrC0tHTT09OzXltbW6DRaIM9PT1lOjo6DxMTEwel3xJoIRCQXQIgEGTXd9ByICB3BGprazXm5+eTvb29v2dkZOSnrq6urqSk9JWdXC4Xx+FwuKurq4u0xUVqT3d33sbGRklGRsaYkpISV+6AgEFAQIIEQCBIED5UDQSAwJcE+vv7dcbHx+Pt7Oy+Y25uHqSqqqq6mw1PJCCB8PJvfn5+YmlpqWxgYKCAwWA8zcjImAWuQAAICE8ABILwDKEEIAAEMBDgcrlKeXl5pubm5klGRkbfsrOz81VSUlJGRe2eNdhL0Ug4sNlszszMzPDMzEzR7Ozs3Y2NjedpaWlLMLOwF4KQBgj8LQEQCNArgAAQECsBLpernJeXZ6Kvr3/Cycnp+6ampjZIEKBBHv0piDjg5dk9s7Dz/7jDw8Nd4+PjuSwWq5DBYIwkJyevi9VQqAwIyDgBEAgy7kBoPhCQFQJoxqC9vd1oZGTkR+Hh4d8gEol6SAwoK29PGoj8h4TCzp4FzsDAQHdLS8tHvr6+t8lk8sylS5c4Iq8QCgQCckYABIKcORTMAQLSSKCystJufX39n8LDw7MJBAKRi1YRdhq6nwIBVcHhcLZnJTgcDofFYm0MDQ21trS0fG5mZpYfHR29II28oE1AQBoIgECQBi9AG4CAHBIgk8l4HA4X7Ojo+Hd2dnaxOjo6BshMQZYQ9gMLmlVgsVjstbW12YmJiZr29vYvnJycKH5+fkv7UR+UCQRklQAIBFn1HLQbCEgpAQqFojI/Px+BjiqamppGaWppEZV35gvQ4LxfMwZ7xYFmFLZ/qE1figXm/Pz8yPz8/MOurq47+vr6LXFxcWt7LQ/SAQF5JQACQV49C3YBATETaGtr03rx4kWIvb39d2xtbWMIBIKGmJsgdHXr6+sbMzMzz+l0emFfX1+RtbV1X0hICEPogqEAICCDBEAgyKDToMlAQJoIkMlkkrGx8REjI6N/cHR0DMXj8XhJzxJg5YNmF3gnI7a2thgDAwP1a2tr14eHh8u9vLwm3d3dt7CWDfmAgKwRAIEgax6D9gIBKSCATiTcu3dPW01NLdXR0fEnDg4O7mjSXgqati9N2NjYWGttba1aXl7+BIfDUZaXl5eys7PZ+1IZFAoEpIQACAQpcQQ0AwjICoH6+nqdvr6+v0tISPgHPT09EyUU3WifjipKCxPezAIXh+NubmysUKnUsvHx8T+7urpW+Pn5MaWlndAOICBKAiAQREkTygICckygtLTUCofDvRsQEPA2iUQy5UU9lGOTX2saWoZgMplba2tr08+ePSuZnp7+3NvbuxmWIBSxN8ivzSAQ5Ne3YBkQEAmB69evu7m4uHzL1tY2XVdX10JZWRlNGoikbFkuhBe9Ec0urK+vr62urvYMDQ09GBkZuXP69OlOJSUlCMYkyw6GtuNAIEAnAAJA4G8I7MQw8HR3d/+2hYVFOpFINOKFQeZt4gNsfyXAEwvoz+XlZfri4mLDixcvCqanp0txONwY7FeA3iKLBEAgyKLXoM1AYJ8IUCgUwsbGhqeFhcU37O3tczQ0NIjyvr9A1Ch3wjtvB4Si0Wgz09PTT+h0+t2+vr6Gt99+ewoujxI1cShvvwiAQNgvslAuEJAhAmQyWcPExMRfU1v7PU9391g1NTUCar40BDaSIYzbTX35Smref9NotKmOjo4CFRWV3Onp6eddXV0rcCeErHlXsdoLAkGx/A3WAoGvESguLlbf2tqKtLe3/5Wrq6uv8pc/qafEZm+fMOSiH2qwoLdASsLA3cJhcnJyqqmp6YaGhsany8vLPbAEIQmPQJ38CIBA4EcI/h0IyCGB8fFxjdra2pzg4OD3TE1NnZTxeBVeOGRZ2ICINgaWlJRcJxKJf9nc3HzLx9c31dDAwFjaXbV7YyNaamCxWFtzc3MjNTU1X+jp6V2LjY0dgSUIafei4rQPBILi+BosBQK42tpa/aWlpTO+vr7v6unpOauqqqrIgiB42XVbW1vMR48eHUlOTq5BGyqXlpYMXV1dA9XV1bMcHBwSSCTSVxdDyYJ9HA6Hu7a2trywsNDW3t5+Q1lZuSg5OXkCuiwQkCQBEAiSpA91AwExEEBRDx8+fGiho6Nzxt7e/oKRkZGDsrIyumlx+ycLSwovY5qdnR1tbm52TkxM3Nz9b0gssNlsKxsbm6MGBgaZJiYmwSQSSVcMmIWq4qsLpL5cN+HQ6fTpxcXF6q6uLrKOjk5VVFTUvFAVQGYggIEACAQM0CALEJAFAmh5/u7duw729vbnTE1Nz5iYmNjKohjYzRpN0aN9B48ePfpjfHz89980Hc/lclVzc3NdHB0dk83NzVP09PQ8NDQ0tFB5srBnAbWTw+FwpqamRmh0WvHI0Eg+m81uSU9Pp8tC/4M2yj4BEAiy70OwAAh8jQC6bnlra+uAnp7eO0gc6Ovrb6/No69UPP6riQOZpIYEwtra2uqDBw9CT5482bZXI6hUqmp3d7e/vb39GScnp1htbW1LdXV1dVlYfuDtW2Cz2eyxsbHO2dlZMp1OL5qbmxs8d+4cXEu9104A6QQmAAJBYGSQAQhIJ4HLly+renl5HVhfX/9ZUFBQBoFA0JLUjMHuKXNEC4UlHhsb6zEyMnLT1dVVwUoQDZazs7PPTE1NfbGW0d/fr97c3ByBYj14+3gf0SBo6KIbKHkDsbTPLqB2stlsVm9vb9vIyMgVIpFYMDMzM5OdnQ03TWLtFJDvlQRAIEDHAAIyTgDtMSgqKgo0MjL6hb+/fwyXy/3qumVJCYSdpQA0a8FubW0tn52dvUQkEhcDAwNb1NXVt2MsYPmhch8+fPh+UlLSJSz5d+fZ2ZtBXF9fP2JiYvKdwMDAMBUVFTWURtpnFnYFY0IrLqzOzs7mZ8+e/cXLy6vQ19cXliCE7RyQf5sACAToCEBARgmgafO+vr4kPz+/H1hbW/upqalpbpuipCT2e5dfOr6HQ9cjd3R03GUwGH9kMBgdCQkJW3fu3Pltenr6e8IscywuLi5UVFSEZGRk9InSbWQyWQ2Pxxvr6+tH6+vrn3N0dAxSV1fXeFkoSLNwYLFYbAaDQRseHq5rbW296u/vX+ru7r4qSk5QlmIRAIGgWP4Ga+WAQG1trcbU1BQSBv9gYmLip6qqSuANXJIawHhLCisrKwtDQ0Ofj4yMfG5tbd3Luwr58uXLpKSkpE4zMzN02RNmL4yMjJRcuXIlaT8jEKKoksrKyva29vbxJCIx29ra2ldVVVVV2mcWdt8HwWKxWHQ6fWxqauoxOgnh5ORU7+fnt44ZPGRUSAIgEBTS7WC0LBIoKioy1NbWPmZvb/9Nc3PzADwe/7W1fHGKg5fCCXMXFhampqambra2tl5+6623/ubrvrKyMiQsLOwp1kGWd3qhqqrqm1FRUZ+Iy38UCkV7amrKx8PDI9PAwCDB0NDQXprFwu6LtHh/39jY2JidnX2+sLBQ1NHRUeTn59cJ11KLqwfJdj0gEGTbf9B6BSBAJpONbGxsTpqYmFy0sLBwU1FRkfhdyzsb5TiLi4tDfX19N2ZmZj7PzMwcepU70HHLmpqa3x8+fPh7WAUCmqGg0WjjT58+PZyWljYuCbdTKBTd+fn5CHd39xMmJibhOjo6Zng8fjvMs7T/eHtCNjc310dGRupWV1dvDQ0NlR84cGCMN8sj7TZA+8RPAASC+JlDjUBgzwSePHnif+DAgY+trKy8eIOrpAcktNa9tLQ0XlFR8Udzc/PPQ0JCaG8y6IsvvjA5cuRIs7GxsYUwAqG3t/eqm5vbW3uGt48Jnz59ajwwMJAQEBDwFlqCIBAIOtJ8iQUSWKjf7D6pgSI3dnd3P2YwGF+Mjo7WnD17dkFJSWn7kgv4AQFEAAQC9AMgIKUEHj9+7BkQEFBFJBJ1JSkKdh1Z5ExOTg6Xl5f/9ty5c58pKSnt6VhddXX1scOHDxcJYwNqQ1lZWWpsbOw9aXNXVVWV2YsXL3L8/f3ftrW1dVFSUsIjW4XZayEuG3kzC2hTaXV19X0Gg/EXXV3d+sjIyE24E0JcXpDeekAgSK9voGUKTKCwsNDEz8+PamZmZsnDIMwAKwxKNIh0dnbWj4+P/8f8/Hy5IMF5Ll26pJyRkXHFw8PjjDDtf/HixVBdXV1Qdnb2nDC27FdedGTy888/V7exsbFhMBhZLq6u52xtbA6giyb3q05RlcsTCag8NpvNXFlZmW1tbX1Io9H+LysrqxlmFURFWvbKAYEgez6DFss5ATSoRkVFvR8aGvpzZKq4v0R5MwZsNnvr+fPnTxYXF/9nYWGhNjs7W+Ajc7m5ufbx8fG1enp6JsIIhMbGxg8CAgJ+JCNftUrFxcVEAoHgqqmpedzS0jLV1NT0gNIOAGkPxMR7vNYZ62sryyvDHR0dBXNzczdVVFTgWmo5f/e8bB4IBAVzOJgr/QQ+++wz2/T09CYdHR1D1FphBlYs1q6uri6NjY3d7+np+bOXlxfV0dHxaxciCVJmTU3NO8HBwR8LMyiimw4pFMrh6OjoOkHqloa0aGbh9u3bhiQSKcjMwiLTxMgoxsDAAG1ulImZBcQQzTCgPkGj0VqGhoZu0+n00oyMDHQtNUcaGEMb9o8ACIT9YwslAwFMBBobG8/7+fmhNX5M+bFmoi8trU5NThZ0d3f/KSMjo0nYqWV0J4S1tXWBnZ1dElahgwankZGRXiqVGpidnb2E1TZpyMe7VROHw8W6uroeJ5FI/jvXUvMmF8QuBgXhwtvgSKPRpufn56vm5ubuTE1NVWdlZc3IyMyOIOZCWtikCH0ACEgXgc7OThTqt8DFxSVB3EsLfX19L+ZptP+3uLDwgMvlDiUnJwsVWOfmzZse8fHxVTo6OnpYBQJa7iguLn7/2LFj78vTIITEwr1795zU1dUzPTw80kgkkquWlpa2uEWhIL1/d+yLnb9z5+fnJ4eHhwvW1tbI09PTHadOnVqCmQVBqEp3WphBkG7/QOsUjMCVK1e8MjIyarS0tIiSGiyYTCazp6enZXh4+IqGhkbh8PDw3MWLF5mCuqKsrOznUVFRvxTGDhQRsLm52TsoKKhL0PplJT2ZTEZ3Z7irqqp+MzQ0NFlbW9sM3QnBO5bI+1PcglEQfkjIoWup29vbyaqqqtcXFxcHsrKyNuRJ1AnCQ17SgkCQF0+CHXJBoIFK/Yn/wYO/QV9okhoQdh1r3L4IqK2trb6np+fDgICAYkdHx+W9gEbBkaanpxtMTU399pL+dWn6+/t7nj596nvhwoUNYcqRhbxoVuGjjz5SMTMzO6SqqnoxIDAwVZdE2p59QT9J9Ye9sNt9eye6oOvFxMRodVXVFSsrq6uRkZGjIBT2QlH60oBAkD6fQIsUlMD4+LgGh8OpsLa2DpA2BOhLHl0ENDA0UN3+rP3q0aNHH1tZWTFe187c3NyAlJSUMqzT5jtH7zi3bt368alTpz5Ae+Wkjcl+tgfNKrBYLD1ra2t/HA53xtPTM4FIJG6LBV4IZWFmZvaz7byykbpcX19fnZub62hsbPzC0NCw4OjRoxPiqBvqEA0BEAii4QilAAGhCVy7di0sKyurRF1d/ctbGaXsxzsvv8Vkbq2urIyMj48/6u3tvWtjY9MQEhLyNbFQWVn5p9CwsL9D2ywFHch4a90MBoPe2NjoGhUVNS1lKMTaHHR99yeffGLp7u4eqqOjc8rCwiKUSCSiyI1ibQeWynh9hs1mc1ZXV2fn5uYa2trablhaWj7mF4ETS32QR7QEQCCIlieUBgQwE2hqbv6j38GD38FcwD5nfOmCpu3aNjc3GTMzM23z8/OFPT09D3x9fXvd3NzQvQk9enp6doKKA94XMqqrv7+f4uLicmSfzZKp4tEm1ra2NkdHR8dEY2PjdENDQ08CgbC9uXH3ngVpM4o364H+5HA4nJmZmcHFxcXHAwMD+VpaWk0xMTEyfUJF2niLqj0gEERFEsoBAkIQaGtr0zIzM2sxNDR0wjKoClG1SLKiNej19fWVsbGx2oWFhadBQUE/V1VVRScyBP7tXATFvnPnzsWcnByx3dwocEMlnKG4uFh9bm7O283N7YSlpWWCrq6uvZqamjpqlizMLqA+w2KxmJOTk89pNFrh2NhYoZWVVR9cSy3hjrWrehAI0uMLaIkCE7h69Wpydnb2HTU1te3d67L2230ZEBrg8Xg8ZhNQfhqNNtHV1eUbHh4ulaGVMRu3TxmRwOzo6Ah3dHQ87erqGq2hoWGgoqKyfR042rwhjT3q5RkpJBZ6e3ubFhYWrq+vrz+amZmZUITNqfvUJURSLAgEkWCEQoCAcASamppuHzx48LgsfPkJZ+necvf09Nx0dXXN2VtqSLWbQGlpqdbkzGSiu4v733l6eQWpqqioo/UHJBJkoX/tzCBtn54ZHBy87Orq+iAvL2/p0qVLELlRzF0dBIKYgUN1QOBlArOzs9oEAmFQS0vLWJiQxPJCFl0nffv27eOnTp0qkBebJGHH5cuXVd3d3Y3odHqCubn5O56env68WQVJtGevde6eWUBHJjc2Nla7u7ufdnV1feTj4/PE29t7ba9lQTrhCIBAEI4f5AYCQhP4/PPPc86cOXMVj8dvTwkL+tvZ+PW1r0NZXKbg7XifmZnp7u3tDYmKiqILygLSv5pAUVGRJpvNtjUxMYnX1dXNdnBwOIjH41V5/USScTf24jO0hLW5uclkMBiTQ0ND5X19fV9ERUXVmpubCxXtcy91K3IaEAiK7H2wXeIEqFSqKg6HKzt06FAY1sagl/vy8vLK1tbWiqGhobksigNkO08gdHV1/c7T0/MfsfKAfG8mgPYrjI6Oetra2qaSdHVTzM3MnJWVlVE0R6lFx5tV4P25sbGxsbi42Ds5OXmvt7e34ODBg8/d3d23pNYAGW0YCAQZdRw0Wz4IUCgUy8OHD/erqqoShLGoqanpTzMzM/+lqqoa5+TklK2np3cQ3YGAlp6l/euQZzf6SmQymVtFRUXRWVlZ1cLwgLx7I/DkyRODxcXFUG9v71QdHZ0jBgYGVng8/iulIO19B/WZtbW11dnZ2YbFxcXbfX195aqqqqPZ2dkgFvbWBd6YCgSCCCBCEUAAK4H79+9/OzEx8U9fXeeHoaCNjY31O3fuxJ89e3Z7UEUhe2/duuViaGh43M3NLZ1EIjlqampqYyharFnQYDQ0NNQ0Pj5+JCoqalWslUNlOCqVatjf33/skN+hHGMj40NaWlp6SCxI84wUb9aJFwNidXWVPjw8XLa+vp7b29tbd/78+TlhbyVV5K4BAkGRvQ+2S5RAbW2thpaWVrmnp2cQlpcwb7p1dHS0AYfDRdrZ2f3NfQUoCt+9e/e8VFRU3gkKCkrV1tY2UVFRQcsa2z9p2hSJ7GlpafmZn5/fbyTqGKgcV1ZWZjE3N3ciIDDwrLmZmYuqqqo6bzZKmvrMm1y1tLREb25uLlZSUvp0cnKy6fTp06tw06RgnRsEgmC8IDUQEBmBvLw815SUlA4lJSVM67+8C3JaW1v/yc/P79dvahiaVXj//ffxvr6+gRoaGt/yDwg4pkMk6qI80rL2jG6RJJPJPmfOnJHbmxtF1nnEVBC6E8LS0tJufHz8XEBAwFlLKysbvDKaVJDGyAp/hcLbuLvTTg6NRltoaGjI39zcvJyRkdEKl0ftrQOBQNgbJ0gFBEROoLa29h+Dg4P/C2vBvOiFRUVFoadOnWrfazloVuH27dv6xsbGQerq6mfc3d3jtLW1Sbz8vJkJcQkHntDp6OigrK+vJ718r8Ne7YJ0+0cACcxPP/1U287Ozg2Px5+0t7dPNbewsMNxuV+FeJYmsfkqEqhfM5lMxvLy8ov6+vo7XC43Nzk5uRtmFV7fb0Ag7N8zBSUDgdcSKC4u1nF0dKQcOHDgIFZMaGDt7e0tXl9fT/Pz82NiKYdCoaiMjIygi4AiiUQiCtl7WEtLiyjOzWm8KIwVFRXvHDly5FMsdkAe8RG4dOmS8qFDh/R1dHQOkkikbHNz80R9fX1TNK0gLlEpjLW8/ra8skJfXlpq7+vrK6TRaPeys7MHhClXHvOCQJBHr4JNUk+gsLAwPD4h4YmaqupX+wEEbTR60TU1NaG9BSIZVPv7+9Xr6uocXV1dE42MjDJMTEw8X3WzpKinl5EY2dra2nzw4IFzZmbmqKAcIL1kCRQUFFjp6OhE2djYZOvr6weQSCSjl1sk6j4jjMW7L45C7eJwONzFxcXZxcXF6vb29g8zMjKqlZSUWMLUIS95QSDIiyfBDpki0NbW9jsPD4/3hPniWlpaWsrPz/e5cOHCiKiNHx4eJlRXV/u5ubsft7SwSCSRSDbq6upq+7H8sCN0yolEYgKcZRe1J8VXHtqvgMPh7AwNDdOdnJwyiESih5aWljavj0uTSHjdEgS6yry9re3PS0tLv4AbJnE4EAjie36gJiCwTaCkpETfzc2tysLCwl0YgdDQ0HArMDDwzH5/7XR2dmpTqdRINze3c87OzuEEAsFAVVUVU9THV3UBJpPJKigoyMzOzr4HXUQ+CHC5XOVbt255GhgYvOXj43NMR0fHSk1NTahYH+Igw1t+aG1t/Wx5efl7in7cFgSCOHod1AEEdhG4e/duSmpqah6KXoflq4r3FV9VVZUSGRlZJE64SCy0trYmOTk5fc/Hx8cPhetFpyWxCB3eGfbR0dF2KpV6MDs7my1OW6Au8RBAm2Jv3LgRbGBgcDEoKChJU1MTbYhVRjd+inOviyDWstlsXGtr68/9/f1/JUg+eUsLAkHePAr2SD2Bnp6eXCcnp1OooVgEAvrKQcsLJSUlB06dOjUvCYPRRUCenp7GdDo90cLC4m13d/dDO2Jhz81BgwOdTp9obGyMi4+P79xzRkgokwTQEsTa2hrR0tIyUF1d/Rve3t6xRCJRB8szsN8AOFwubnFxcfrJ48cRJ0+e7Nvv+qS1fBAI0uoZaJdcEqBQKKaenp6NKKQtVgPR182TJ0+uLS8vX5CGr250EZCSkpK9oaFhvJ6eHjoC54NHn4evEUC8Y42zs7MDnZ2dp6Kjo5uwsoB8skkA3UHS2dlp7OjoGK6pqXnKwcEhgnd6RloCMSEB+/Tp0/fCwsI+kE3KwrcaBILwDKEEILBnAnfv3r2YkpLyJxUVle0BFMsPBRQqLi4+mpaWJnX3FdTU1BBnZma8nJycUnWzZZ9FAAAgAElEQVR1dZNMTEycXt6vsLCwMD05OXl7eHj4f1NTU+FoGZZOIEd5Ojs71VpbWw84OzvHkkikTCsrq4MEAkFTGkwcGhp64ODgcEwa2iKJNoBAkAR1qFNhCQwODpbb2dlFYZlW5e09oNFo4x0dHU5RUVF/E1pZmsCizZhLS0sHra2tD2toaBDRzMHk5GTD5uZmc0ZGxggEqJEmb0lHW7hcrnpubq6vu7s7OmaboK+v76SmprZ9ekYSMwvT09ONZmZmgdJBR/ytAIEgfuZQo4ISKCoqsg4PD28hEokGWAQCwoYG2UePHv1vfHz89yFcrIJ2JAUxe2dDbKSHh8dJa2vrSC0tLRM1NTWRnZ7ZC0YQCA9MlZBKSEpKmt4LMEgDBIAANgI3btz4SXZ29q+VlZUxBbJH4mBjY2Pt3r17YTk5Oa3YWgG5gIDsEUBLV/39/Uk+Pj5vOzk5BaqpqaH4Cl9dS43lFM1eKIyMjFSgGb+9pJXHNDCDII9eBZukjgDawe3v799mY2PjjnX2AG1OnJmZaTM3N/eF2QOpczE0SAwEUJjnlJQUg8HBwVRHZ+d3PdzcDvGEAtbn6k3Nbm5u/qWfn9+/isE0qawCBIJUugUaJW8EKisrHQMDA9vV1dUxB4tBMwhPnjz5l7i4uH+XNz5gDxAQlACFQiEwmUwrPB6famFhcdLBwcFbWVlZhScUhBEM6FljMBhrBQUFUWfOnFHYUzYgEATtlZAeCAhIAH31eHl5/UdKSsqP8Xg8puUFVCWdTl+gUCghGRkZCnsuW0D0kFxBCFAoFO319XV3MzOzVAMDgzQrKytXYQXC8PDwk83NzSRFDv8NAkFBHiAwU3IErl+/rhMREfHcwsLCCstLi3d6YWRk5DGVSk2QhtgHkqMJNQOBNxMoLCyMOXbs2CNh9iWgZ45Kpf59QEDAh4rMGwSCInsfbBcLgfLy8sCIiIh6VBmWlxaa7uRyuVwKhXIxJibm/8TSaKgECMgmAaWWlpZfe3t7/wTLs8YzeWlpabGoqCjg7NmzCh2nAwSCbD4E0GoZIcDlcpWqq6t/Fxoa+kPUZCwzCEggLCwsTFVUVARlZ2ePyYjp0EwgIHYCRUVFhl5eXjVWVlbOWJ41XoNbW1vv+Pr65uz3RWhiByRghSAQBAQGyYGAIASuXr1qHBsb22piYmIuSL7daZFA6O3tverm5vYW1jIgHxBQBAL37t07lpycjPkCM95tjg0NDZnBwcF5isDsTTaCQFD0HgD27yuBysrKxLCwsPtKQnzOoJcWhUJJj46OLtjXxkLhQEDGCfT09FxzcnI6g3W2DuWbn5+fe/z4seepU6dmZByH0M0HgSA0QigACLyaAJfLVW5ra/vcy8vrrBD6AIUnHm5oaAjKyMiYBdaiI4CuIc7Pz3dlMBi+aL2ayWTitLW1G9LT0wcgDLToOIurJDKZbH3kyJE6AwMDzLN1KNZIRUXFJzQa7SJsBsbhQCCIq/dCPQpHIDc31yY2Nha9sMyEEQiNjY2/DwgIeA+CI4muC+Xl5QV7enr+xMjIKJxIJOqhktHO9ZWVlQU6nd4yMjJSSKPRHmZkZAwDd9Fx38+SHj58+G5sbOxfsEYqRW1js9mcysrKqKNHj1btZ1tlpWwQCLLiKWinzBGorKw8FxoaegXrJTO80wu1tbVh4eHhT2UOgJQ2+P79+0nBwcGf6unpGb9OuHE4HC6NRpuZn5+nTE9Pk5eXl+tSUlJmQSxIp1PRbN3IyMgTW1tbzGGRkUCcn5+fLCkpcTp37tyadFoq3laBQBAvb6hNQQig6euBgYE8e3v7FGQyliNXSCCMjo4OVFZW+l+4cIGuIOj21czHjx9b+/v7NxGJxG1x8AaB8FU7UJrJycmRFy9e3NvY2LizuLjYkZaWtgRiYV9dJVDhhYWFzpGRkXVoNgjrbB06SpyXl/fH58+f/+DSpUscgRogp4lBIMipY8EsyRL44osvXBITE5+SSCR9rC1BAqG4uPjfk5OT/wVrGZDvrwTQfRgkEulmbGzscaxc0MzC+Pj4UEdHxw0jI6Mb3d3dQxcuXNhEKxRYy4R8whMoKir6ZVJS0s9RSYIKBF4gso2NjfVHjx75p6WldQnfIvkoAQSCfPgRrJAyAmVlZT+NjIr6tbIS5sjKOBaLxaZSqZ7BwcHdUmaeTDYHRbTMysqaVlNT0xDGACTc0I/L5bJHR0cHGxoaPjYzM7sRFRX1QphyIS92ArOzsz2GhoaYYx8gkTAxMfHMysrKF3sr5C8nCAT58ylYJGECaHlhamqqztTU1F/Qr5ndTR8cHOytrq72uXDhwoaETZKL6quqqryCg4NbVFRU8KI0iMPhcLa2tlYmJiY6qFTqF4aGhnnR0dEKf0ROlIzfVFZ+fr5PQkJCHdaL0JA4QMsLRUVF/5KWlvYrcbVbFuoBgSALXoI2yhSBmzdv+icmJpYRiUQi1oajQefWrVs/y8nJ+S2sdWOl+PV8FRUVwaGhoTV4PF5ZNCV+vRQ00KBd8EtLS9MLCwvV7e3tZENDw6qoqKj5/agPytyexVEuLi7+U0JCwrewinHkN/rS0nx1VVVwamqqQodWfrlPgUCApwwIiJhAeXn5/0ZGRn4XFYvlpYVeWOvr68tNTU3uMG0tOucUFxcbxcTETKioqKiKrtS/loT8hvzNW9Nms9nsubm5IRqN9qC7u7vQzMysOTQ0dGU/6lbUMouLi3UCAgIGDAwMjLAyQP4aHh5+aG9vnwRi/OsUQSBg7VWQDwi8ggCXy1Wdn5/v0dfXtxfmeOPg4GClk5NTJEAWHYHi4mJ1BweHRicnJy/Rlfrmknamr9HMAnN8fLxjaWmJPDAwUGxvbz/o5+e3Lq52yGs95eXlRyMiItDNjZhnhdCsz8OHD7+RnJz8mbxywmoXCASs5CAfEHgFgdu3b4ckJyeXq6mpqWOdPeBwOOybN29++8yZM3Bzo4h72ZUrV47n5ORcV1FRweQfQZrz8owCb2aBw+Ewe3p6Gubn569vbGyUcrncqcTERHQSAn4CEKBQKCpcLjc3IiIiWwh9gJuZmRl79uxZUHx8/JQA1StEUhAICuFmMFIcBNAxOl1d3S9iYmKysdaHBhEajfZiZGTE18/PD9ausYJ8Q77qp0+/CA4MPInuxxBmYBGmaRwuFy2g47a2traeP39e19/ff9nMzKwoMjJyDaa590b2ypUrFmnp6V1EbW0drGIcPW+9vb2furm5vbO3WhUrFQgExfI3WLuPBPLz83VjYmLGtLS0MG9ORC+s/v5+srOz84l9bKpCF11aWqqlpqb2LyGHD/9ATVVVTRIweEcleQMbOtLKZDJX29raKoaGhj729PSkeHt7QzS/Nwm96uqcw4cPf4GeGSxCj7eptKCg4FhWVtZDSfQDaa8TBIK0ewjaJzMESkpKUqNjYvLwWN5WO1YymUxWYWHhiaysLIW/anY/HU+lUlWXlpY8iUTiWQsLizRTU1Pb3fUJ4UKhmo2EA5PJ3FpeXp4cHh4uHRwcvO7k5NTg5+fHFKpgOcuM9pOYmZnd9fHxScJqGpvDwY2Njj7v6+uLiI+Pp2EtR57zgUCQZ++CbWIjgAacjY2NW8HBwenCDC6Tk5N93d3dIdHR0Qtia7wCV8TlcpVu3LhhbGxsHGxmZpZlbGwcpa+vbyrMhT/C4OTtU+D9yWAw1peWlnpQmOfx8fF8W1vbbhALONzNmzddExMTG4Q5SowYt7S0/Lufnx9EKn1NpwWBIMzTDHmBwA4BdNVsbFxchw6RiHk9FBXV1dX1Bw8Pjx8AWMkQIJPJdvr6+rEODg6ZJBLpEAqV/fIUNpb1blFYs7y8vDQzM9NAo9Hu9vX1PT579uyYkpISWxRly1oZLS0tP/Tx8flvYXzBZDKZjx49Cj527FizrNkvrvaCQHgFaS6XqzIwMCDSaGvicqgo6tna2uK6u7tviaIsRSmjrq7urcDAwM+FWQ9lsVjMwsLC2KysrApF4SatdqIAPPn5+c4ETc2TfgcPphMIBHttbW3NL0NbYA+fLYy9vCOTqIyVlZX5wcHBss3NzVu9vb1158+fn1MUsVBbW6thbGz8xN7ePkQYX3R1dTXNzs4eiYqKWhXGL/KcFwQC7wuws1PNeG7Oe3l5OUNfX99JTU1NV1F3E3O5XObc3Fwf+qDV0NCo6e/vH3733XcZisqD3wugs7NTjc1mF3h6eibwS/u6f0cv/6GhoZbp6elICKaDleL+5UPhfAkEwtv+/v6pOjo6Zng8XpU3OAkzSImixTQabb6tre0Bh8O5Mjo6Sh0fH1+T59sIb9y4EZKamvqEQCBoYGHPZrO3NzWWl5d/Pzo6+n9E4QN5LQMEAg6He/LkiYment7nXl5eMUpKSnisAW7kqZPsnOHmopC/s7OzE9XV1Z85OTn9wdfXF64dfsnRn376qduJEyeaNDU10Rcmph/anNbW1vazgwcP/gZTAZBp3wmg/Qp1dXWEubk5fzU1tXeDg4OTiUSijjB7TkTRaN6JCA6Xy1mi0+cqKyvvEgiEvyQmJj6XR1Hf1tb2e09Pz+9jEQeIN+KFYo3cu3fPITMzc1QUPpDXMhReIJSUlJi5uroWWVlZHZTY3KEM9C50ze3a2tosEgqampq/gmm5vzqttbX1R15eXr8VZqBAO9cLCgr8srOzO2SgOyh8E9GFXB999JGes7NzsIaGxlkXF5cYIpGouxsM1gFMWLhI3G9sbDAWFxeHW1tb72xtbd1sb2/vlYdZhc7OTm09Pb1GMzMzV6yckECgUqlVCwsLsRCg6s0UFVogoHXG7u7uu07Ozql4ZWXJLCxi7eUSyIdePEgozMzMPG9vb/+7+Pj4WiUlpS/vvlXQ38566GM7O7vDwgiEjo6OitHR0aTk5GQIvytjfQmdYOno6LBwcXeJ1CXqnrC0tDyMYmFISiDwvpJ590KsrKws0un09s7OzttbW1sP0tPTR2QM8VfNvXHjRkp6evptdXV1zPErmEwmu6Cg4HR2dvYtWeUgrnYrtEC4e/fuwdjY2EpNTU1tYV7u4nKWNNTDO35Fp9MXOzs7vx8aGnpdkUXCjRs3wtLS0krV1dUxrYfyeFZXV38jIiLiE2nwMbQBOwG0H4VKpbq4urommpiYZBgbG3vw+sbu0Mv7LR54dSFLeH0M/XVhYWFmcXGxrL+/P39tbe1pVlbWjCwtQ6AbMt3d3bOwvq8Ri7W1tUUqlWofFRUFy6V8urpCC4SbN2++n5WV9a+IEdYOh/1VIts50UYfBoOx3NLS8l0KhXJdHqYvsXiktbX1Ax8fH8zHEnmBccrKypySkpJgPRSLE6Q0D5VK1ezt7fVzdnY+bmFhEaenp2erpqamhvWkiyjM3JkF3C5qenp6cGFh4f7CwkL+1NRU++nTpxdFUcd+ldHQ0GDg4uLyXFtbG8WpELga9KwhYdbU1FT48OHDDEV9ZwkCTmEFAtpw1NDQUBIQEBCLgO23ohfEKbKQlnfkanV1dammpiYlKSmpShbaLco2trW1aRkbGzeZmpq67v5iE6QO9NJqbm6u0NLSioOjpYKQk620qK+0tbUdcXNzO+fk5BSuqampj8fjVcRtxa7ZhK9mFrhcLmdsbGxgeHiYrKSkdIfJZA7ExsauS9vMQm5u7jvZ2dmXlZWVMQUrRbZvbW1tksnkjHPnzhWLm70s1qewAuHSpUvKqamp5T4+PhGy6DhpaTMa4BYWFgZwOJyvsbGxQp0nvnbtWhIKiSzsemheXl7OyZMnb0uLT9Gz4ebmpnLgwAESh8NZu3///tYvfvELtrQNGNLCS9B2zM7OahcXFyd7enp+28PDwx+Px6ObJbf3QGH5Mha0/tel552GGBwc7G1vb79saWn5SVBQ0LKoyhemHNQnT5w8WeXi7HwYazlIICwtLQ1PTk66gBjfG0WFFQhoBqGwsPDPqampF/eGClK9igB6qXC5XC6VSs0rKSnJVqRpO2HXQxHPdQaD3tjQYCUtp0LIZHKwnZ3dP7u7uwcrKyujgYuNZomam5sfLCwsfG5qatocFRXFgqdBeAJoc+PCwoIpi8VKsrKyOu/m5uaHx+MlFqCNt/yAtMrO8ebempqab544ceKp8NYKV0JLS4u5q6trH4FA0MJaErKvtrb2T6Ghod/BWoai5VNYgYAcfe3atR+ePn36v9HfYYlBuK6Pjundv3//W+np6Z8rwpdmdXW1nru7e4eurq4Flr7Dm+qtr68vfPTokcTXQ9FgtcZg/NshX99va2lpkXb3ht33AqysrAx1dHQULi4uftHV1dWjSIJQuCfkzbmLioo0mUymjbGx8TFTU9MT1tbWXioqKqq7l66w9DNh2oyupKYvLk5WVFQkZ2ZmtghTlpB5lW7duvVeZmbmf+HxeMynzVZXV1fv378fnZOT0yBkexQmu0ILhI8//vg758+f/190MYu4Hz5562FoJmFlZQVtWgw/cuRIm7zZ97I9169fP5Odnf2ZioqKCpa+w1sPLSgoSD958qREr5pFs2klJSU/PXLkyPt4FRVV/EsbwHaH+N3hwEW+ptPpLWjdmk6nl6SlpaF7ART6yKuo+nxxcbEOk8v0sbe2TyGRSInm5ubOyl++pERVxZ7KQRuRUZ1DQ0O1L168iJDUzNHVq1e1AgMDGx0dHd2EYTAxMdHY3t4eDrEP9uT+7UQKLRCuX79+ODMz84m6ujpBmI63d9zyn7Kvr6+2r68vNTk5eV5erUXroWlpaU+8vb2jsNqIBl0ajTbAYDC8rKysGFjLEUW+hw8f2oaHhz/T1NT82szBXspGdswvLEzTFhaqZmdnyYODg08vXLgwvZe8kIY/gdraWv3p6ekwNze3bAMDg3CSrq6Zys4yhLjeWZtbW5sVFEpIfHy8RGYRnjx54hUZGdmq9KVK4g/tpRS8vRVNTU3/FBQU9GuBC1DgDAotEIqKihyPHDnSoqGhoS2uh03e+xp6GNvb23/b2Nj4zxcvXpTLO+zr6+tNfHx8BtTV1bWF8WdjY+NfAgMDvy1MGcLmRbMHZDL5V8ePH/8Zlg1yvJcvagfaizI/P/9iaGTk3tbGxq2JiYnn/f39S7AMIayXvsyPor6ura2l+Pj4nDA0NPTW1tbWE8e11Ggm4datW++fPn36kmgs2XspqH9WVFT8MiIi4p9RLizv6Z3NiYuFhYVh58+f79x77ZBSoQUChUKx9fX1bdPR0cF0RS90n78lgAYMNpvNKi8vPx0fH4925nPljVNubu73Tp48+Xv0QYPVtvX19bXbt2/HnT9/XqIbwD777DPCwYMHGzw9Pb2wvHxfZz96KY+Pj492dXWR1dXVc0dHR3svXLiwgZUX5Ps6gbKyMpvZ2dmTQUFBp83MzBxVVVXVd980KWpfFhYWftjW1vZdcYs9MpmsHxAQ0GBjY3MAax9AfXFgYOC+o6NjmqLceImV1cv5FFogoFDLS0tLAzo6OnaifKBE5RxZLIe3E5pGo6ELnsIzMzOHZNGO17WZTCZruLq61ru5uXkJoQ9wk5OTLXQ6PVjSx62QQAgJCWlxdHR0FeUzwAtKs7N/gTU6NjZUX1d3xdbWNjckJATtV5A74SiJfk4mk/EkEslxbW3t7YCAgJOmpqZWqF+K0pfIh2iW6eTJkz8Xt42VlZVHQkNDy4R51tAMSH19/enQ0NAvxN1+Wa9PoQUCct7CwsKgnp6evSgfKFnvFKJoP5puHh0drbS1tY1XUlLaFEWZ0lAGhUJxCQsL68S6aYy34a+xsfFfgoOD/13SNu3MIDR6enp67vczgPrExsbG6tTUVAeVSr1FJBLzEhMTX0iagTzUj/bFHDhwQNvCwsJNWVk5x9nZOdPY2NgcTdHvnprH4mMmk8nJy8s7d/LkyVxxs3r27Nmfvby8voWl3by2zs3PTz0qLQ04c+YM9DUBHajwAmF0dPSplZVViDAdUEDmCpEcDYQsFotVW1v7QWRk5E/kxeiysrKfRkRE/Br1FyxfNYjLysrKUlFRUdiZM2ckfnMjGkDu3Lnzq8zMzJ+K6yjPznW7nOXl5dm5ubmnHR0dtywsLMpCQkJo8tJPJGkH8um1a9eMbGxs/HR1dU9aWlrG6OrqmqI2YemzdDp9rru720Xc/iGTyRbh4eFPjY2NbYR5P1Op1E/8/PzehVM2gvdKhRcI3d3dN5ycnE5ieXAEx604OXhn59EX4/3797Oys7NLZN16MplM8jl4sMrRwcELa2jlnfXQUiaTmSLp5QWeP0pKSg6Eh4e3EAgE4u6vzf3y1+5wv6gONofDnp2ZGaTT6aU9PT339PX1qXCRjmjoo2XUa9eu2VhZWUVYWltnGBsaHtbW1tZ/ecDd/d88/6D/x2QymU+ePPl5QkLCb8W9LEShUM6Eh4dfRcIVi0DYnq3D4XA11dVxERERj0RDVLFKUXiB0NDQcN3f3/80lg6oWF0Fu7XT09Mvenp6gqOiomR6iq+4uDgoJiamRkVFBXO0O/TSam5ufsff3/9T7ERFmxN9cVZWVv4hODj475FtkhLLaGYBzTqh0w90Ov3uyMhIkbW1db+fnx9cgS0Cl3O5XPzdu3cdSSRSmqura4aOjo6rtra2Nk/s8t6BvGUwdG9BZ2fn5ZWVlffEHQMBCZvBwcHb9vb2GVhFK7JjZmbmxb1793wvXrwot8euRdA1XluEwguEgoKCH6WkpCB1vJ+cFbps9OKvr6+/t7q6eiouLm5NFmGgQbSlpeU3vr6+Pxamr9Dp9PmCggL/CxcujEgTBxRJkcvlXvb09DyJricWZ9t4A9T2BlcuF4eexO2vVxZrq7evr3VuZuYKg8EoVVZWnoAgN6LxDBILN2/e9DM1NT3j4eGRqK2tbYbH41XRpzoSBkvLy8P1dXUfpKenoy94sYfWzsvLc4qMjKzR1dU1Qv0Ci2hF753S0tI/NDY2vifu0xei8ZLkS1F4gXDjxo2zJ06cQA+B5L0hpy3gnWyora39Xnh4+P+TxaOPJSUl+uj0gpWVlaMwfaWpqenWyMjI6ezsbLa0uRuJoOvXryf7+fldcnR09MLhcNuzCcLYK6yNvL7D5XLZbW1ttYODg3+2srIqDQ4OXhT3lLewtkhrfiQOp6amHGg0mjOHw9GysLBootPpQ5Lso48fP/7p0aNHt/f6YP2xWCx2fX39obCwMLmP7IqVEb98Ci8Q/vznP5985513vlBVVcXeE/lRVvB/3xXLf7WsrCwmJSWlXtaQPHjw4FhcXFyhktJ2PDfMzUdXY4eFhRVhLkAMGYuLi9U1NDTs1tfXj7u4uJy1tbV1FEdAnleZtvu4JPp3tF9hc2Njpbe3twZNf8fExJSbm5vDEoQY+oW4qkDLCxMTE0/Nzc2DhBEIIyMjw01NTe7Z2dkSjVQqLm77UY/CC4SbN286JSYmNhCJRN39AAxl/pUAOo/84sWLlra2tsTU1NQZWWLT3d39qbOz8wXUZiwvLTTQ0Wi0ucePH3ueOnVKVmxXKi4uJhIIBFctLa1Mc3PzNFMzswPbN5fsfNlhYSEKv+/cZbG1vr4+PTg4+Linp+eWq6vrU9ivIAq6ki3j5s2b/omJiWXa2tpErP0LHaklk8m/PHHixCWYacLuT4UXCA8ePLAJDg5u0dPT08eOEXLuhQB6qbPZbG5vb+9Vd3f3d2QlqllRUZFFYGBgvYGBgSWyE8sMAhIIFRUVnx85cuQbsmL3bp+i5Yfbt28b6uvrB5qammYaGRlF6xsYWKgIcbveXvrM69LsDvGM0mxtbW0sLCx0T01N3evq6ir08/PrlJZTIsLYqYh5yyiUP0aGh38HiQOsAoHBYKxUVlZ6JSQkSNVeH1nzp8ILhIaGBgMbGxuqiYmJraw5T1bby2AwGDU1Nd+LjY39WBZsKCoqupCQkPAxHo/HvLbAYrE4VVVVUUePHq2SBZvf1EYkFvLy8iwIBEI0ukSIRCL5k0gkg/0K9Ssor9XV1ZXJ6WkqnUYjDw8Plx84cGDYz89PLu8FEZSNtKdH+yGsra17DQwMtqPbCioQeCcwRkZGah0cHA5Lu73S3j6FFwjIQdPT0w0mJiYB0u4seWkf+vpbWlqarq2tjTl27NhzabYLDYbDw8Mltra2sYK+rHbbNT8/P/3w4cMD586dk8lTHK/zEeJz4+4NZ0MdwwxXV9c0XV1dtBwh0cvPeKchcFwubnV1dWloaKhsY2Pj+uDgYL2lpeWcuI/sSXP/lra23bp1KzwtLe3Rzt0SmAQCh8PhkMnk7546depDabNP1toDAgGHw42MjNTb2NgEyprzZL29AwMDba2trcHSvIkIXejl4+ND1dXVRV/ImH5owLqbf/fDzo5OsV92g6nBGDOhewHU1NTc2Fz22xFhERlEItEUj8eroSWZ3UcZsSzRYGzS17LR6XR6U1NTiYqKysfz8/PUrq6uFTj+Jgqyoilj516JG7GxsVlYS0T9jEajTQ0MDPgGBQXJyl4frObuez4QCDgcrqen5/+cnZ2/se+0oYKvEeBwONz79+//JSUl5bvSui5/+/btn6Snp/8Gj8ccGwm3ubnJqKysDIiLi5Pq2RIRdk+ly5cvq5ibm/vh8fhvBgYGpuvq6n61CVhSAoF3mobL5XIWFxcXGhoa7jIYjI8yMzOfwUY2EXofY1G5ubl6GRkZYwQCAfM16sjHKMCSo6NjNsZmQLZdBEAg4HC4zs7O37m5ub0HPUO8BHiR8yorK7NjY2PzxVv73mobHR1ttrKyOohSY1li2Inm1mlqaoquU+bsrVb5SYW+Clkslp6lpeUhZWXlc56englEIlEPWfhyBD9xWL07RDb6OxJvy8vLY01NTQUsFuvq1tZWryTP/4uDgbTWUVpamnb06NE8vBAbX1Hsg4KCguysrKw8abVTltoFAgGHQ1H+3g8MDPxXWXKcPLSVFwSHRqO9aGpqOpqUlNQnTXbduXPHJTExkQz/BNwAACAASURBVEogELSwigN03Kq4uPjfkpOTL0mTbZJoC4re98knn1i6urqGoUuELCwswohEoo6kZhR4IoX3J7pEi06nPxsYGMhfWloqysjIGIaZBfH0lM7OTrWl5eW7gQEBx7D0B97s0PT0dO/IyEiIuC+WEg8l8dcCAgGHwxUWFmakpKTcFT9+xa6R91CjmYS+vr7CmZmZM1FRUavSQAVtvsvPz/+vtLQ0NLOE+bKY5eVlWmVlZUhqamqvNNglLW1AA0JbW5ujvb19jJmZ2XFDQ0NvDQ2Nr00tYxFlWOzbtfSwfYSVw+VyaQsLM3Q6vXpkZKRgeXmZkpGRMQ1iAQvdveXJz893iI+P70BhvrH4nefDrq6uDzw8PGA2eG/Y+aYCgYDD4a5fv56Qk5NTjEW58iUMCfgS2ImPwKZSqb8oLS39tTRsHLt69apWdHR0j5mZ2XbsAyw/ZNf4+HiZjY1NNJb8ipIHiQUqlerj5uaWY2lpGU8ikezU1dXVkf2SeiZ5x+XQSsj0zMz47MzM/YWFhTs0Gq0tKysLwjyLuHPW1dV9Mygo6COsxSJ/MZnMrXv37kVnZWVVYy0H8n2dAAgEHA730UcfhZw9e7ZMXV2dgEW9QqcSjgBP/a+sri5VV1WdOHbsWKlwJQqfm0KhBIWFhT0VJvYB2oRZWlr6vcTERHT/BPz2QKCtrU2ro6PjsKOj4zk3N7ejBALBUEVFRQVl3b1/YA9FCZWE1yd314s2N7548WJoaGjolpqa2p2JiYmB7OxsqZjxEspYCWeura3VIJFID93c3CKwNgXNQg4ODjYwGIyj3t7ecnWUGCsTUeQDgYDD4RCEwMDAFn19fTMQCKLoVtjKQC/lqamp/vHx8TBJHlG6dOmSckBAwP/Ex8dvR3MT9McbXGg02kRbW1vg0aNHJwQtA9LjcFQqVbO7uzvWycnpe97e3sF4PF6ddyeEpGYWkF/QYIT2loyNjY00NTX9n4WFRe7k5OQEbG7E1muvXbvmnZWV1aiurq6GrYQvxWNLS8t7fn5+H2AtA/L9LQEQCDsC4eDBgy0mJiYgECT4lOxsWuR2d3c/8PDwSJHUmu/Vq1eN4+LiOgwNDY2xDES8L93+/v5cR0fHs5KyQ4KuFGnVFApFhcPhmDAYjHgzM7Pznp6eQaqqqtuzCuL+7d6vsPN3LovFYoyOjj5vbm6+YmxsfDc6OhrO3wvgmGfPnv2rl5fX+1jEOK8aJpO5SSaTD545c6ZLgKohKR8CIBBwONzw8DABh8OVW1tbB2MZEKCXiZYAi8Vi3rt378cZGRn/I4nBtba2Ni44OLgEq1U8ofP48ePjCQkJcNwKK8hX5EPT0bOzs3ampqaxJBLppIODw0E8Hq/KG1wQe0k9wyic9vr6+vzU1BSVSqVetbCwKIuKipoXoflyV1RNTQ3R3NycYmNjg47BCmwfb69IW1tbmZ6e3jE7O7sNgQuBDK8lAAJhB01fX9+DAwcOJAqjYqGfiY4ACpFbU1MTk5CQ0CS6UvmXhI7iNbe0fHzo4MHz/FO/PsXExER/c3NzmKzdWimMzeLOi/YrDAwMeDo4OKTq6emlmJmZOeHxeBUsA40o2r5rY+P2tdS0hYWxhYWF0q6urju6urrUmJiYJVHUI09l5OXlxSQmJj5QVVVVxeI33oxOdXX1WxEREVfliY002AICYccLHR0d+e7u7mkgEKShW365pjg4ONgyNDSUEBcXNyuuVt24ccMqOjq60dDQ0BRrnajt7e3tH3h7e/9IEjMgWNsty/lKSkr0V1dXD3t4eaXr6ugcMTA0tFJWUkI3U2+bJcmZha2tra2ZmZme+fn5e52dnfnGxsa9cXFxsJHuyyB1l93c3N7F2vfQfpCtrS1GaWmpc1pa2jjWciDfqwmAQNjh0tbW9s+enp7/DgJBOh4V3tdYS0vLn+bm5t5LTEzcFEfLnj59ej4oKOgzLF8zvPahy2LKysqOxMbGVoqjzVDH1wlQqVTDoaGhY76+vtnGxsYBmpqaeug0iqSebV5fRvWjo3iDg4PUxcXF3Kmpqcfe3t5jjo6OYunb0tZPqqqqjJycnJpMTExssLYNCYS6uroHBAIhHW7sxErx9flAIOywaWlp+aGPj89/S+olInrXykeJTCaThQbtqKio3P22CIUF9vHxyTtw4ADaIClwdbzpzpGRke62traQ9PR0usCFQAaREqBQKJYzMzPZgYGBZ83MzFzQLYEo6hVvIykWP4uigah+FOb5+fPntVNTU1c2NjZKjIyMFhXppskbN26cOn78+FUVFRXMF52wWCxWYWFh6vHjx4tF4Rco4+sEQCDs8ECDUHBw8GeSemFAx3w1AfSFQKPRpsvKyuJPnjzZtp+crl+/7nbs2LEaHR0dPSz9gCcQKioqfnHkyJF/28+2QtmCEUDiz9LS0m58fPxcQEDAWWtraxskFLD4WbCaX516d5wFFC9jc2uL0UylVkxMTHwYFBRUpgib7fr6+kocHBzihJmtW11dnevo6LAJCQlhiMIvUAYIhFf2gTt37gSmp6fXC9NZoXPtH4GBwcHKrc3NY+7u7vsWmKa+vv6nAQEBv8Y6aOx8lXIrKiq8oqKiFOXmxv1z+j6UjEJof/rpp9q2trauysrK2Y6OjplmZma2vKqQ7yW5X4HJZDLX19dnnz9//mR0dPRKSEhInTyKhUePHpkHBAS0E4lEA6zvXOSnckr59aNHjp6DvT778LDshABQQtMISUlJ0/tThWyU+tlnn/mfO3euEWtnlQ0rZbeVTCaT3dzc/L9BQUHv7cfLgMvlqr548aLC0tIyBCslNNsxMDDQ2dfXF5CcnLyOtRzIJx4CKCDWoUOH9HV0dA4SSaRsS3PzRH19fVM0rSCp98DuOAtoCWJpaWloeHi4aHh4+I6zs3O7vKyz37x584eZmZm/xbo3hLdEU1BQEJeTkwOhlffpkYElhh2wn332mW1GRgZVR0fHYJ9YQ7FCENh5IawODw9/qKSkJPDgOzs7O8/hcC6/bo335s2bQYmJiY+JRCLmu+hZLBY3Ly/vH0+cOIGiuXGFMBeySoBAQUGBlY6OTpSVtVWmoYFhMIlEMkLN4M0q8P6+n03jCYTdpy9QfWtrayvz8/PN09PT9wYGBorPnDkzoKSkxN7PtuxX2Wi5x9/fn2pjY+ODlSniNDMzg65R91VSUmLuV1sVvVwQCDs9gEwm6x8+fLjF3Nwc845aRe9M+2k/b1PZ7rXbvdaHvuxLSkour6+v//3rwuFWV1f/4fDhw/+AdXkBtWVzc3OVSqU6h4aGTu61bZBO+gigAQyHw9np6+tnuLi4pBOJRA8tLS1t3qyCMH1EGGtRP0Y/dEPoxMREOZ1OvzM4OFijoaExLUthnsvLy52Dg4OfEQgEFKAO0w+xqKmp+c+IiIifYioAMu2JAAiEHUwUCkXX2tq6yd7e/sCeyEEisRPgiQRBK0ZHyx5XVBxOio2lviovuk3QyMiow8DQ0EkZw+kFXpnd3d11rq6uoUpKSl++yeEn8wS4XK7yrVu3PA0MDN7y8fE5RiQSrdClbjzDsPZJLGDQoPiyOKHT6XPPnz9/wOFwvpidnW3OysqiS3P/Q3tA7t69+x/p6ek/4d2rgYXF8vLy0v379yNPnz79DEt+yLM3AiAQdjihjtve3p7r5eWVszd0kEpWCMzNzY18+OGHjpcuXWK9qs3Xr18/mpmZ+UBNTQ1dBiSwWejFjWIfXLt27eLbb7/9scAFiDgD6ssdHR26IyMjBzY2NuzV1dVfGBsbT4yPj4/L0pemiLEIXRyKspmbmxtkZGT0zYCAgBRtbW3Sl9sVlCW6sZEnHBYWFuZra2tvqaqqftLY2Njxuv4uNAghCrh+/bpOWFhYt6WlpTmWZ41X9ejoaIWNjc2R/diPJIR5cpcVBMIulzY0NFwJCAg4J3deVnCDCgoKPkhPT//Rq/YFoMH06dOnN0JCQk5g3b2O8i0vL88MDAx4+Pn5STT2fk9PD/HFixe/CwgIyCIQCNpoAEM3D3I4HCYK/0ylUq/p6ureiouLg6hzGJ8LNKtw+/Ztop6eXpC6uvo73t7ecUQiUUdSSw+7AzEhscBisbZoNNr406dPPzU0NPwwKipKauJx1NTUBAUFBdUhcSAMr/Ly8u8dPXr0jxhdCNn2SAAEwi5QT58+/V1ISMh7e2QHyaScAHpZrq+vrzx+/DgkIyPjlccOS0tLtYKCg4d1iMTtDWlYfqie7u7uOx4eHllY8osqD1rbdXZ2LjAxMXHG4/GvjPSENlKur6/T5ubnnz1ra/uCqKV1X5yhrEVlq7SUQ6VSVTs7O40dHR0jtLS0TtrZ2UVqa2sTJR2ICfFBs1qTk5Ntz549+15ycnKNpJmhUyORkZF/CAsL+y5qC5YZBMR1YWFhuq6uLiQlJWVY0jbJe/0gEHZ5uK6u7nRQUNB1eXe6otiHXiYTExMN6Oji69Zl79y5k5aSknJbmOuDNzc3mfn5+SdycnLyJcU2Pz9f19nZ+Y6Tk9NR1AY8/tXB6Xgb3XYGEPbi4uLk4uJieUdHB1lbW7s+Pj6eJikbZL1etJelo6PDAQX/IZFImVZWVgcJBIKmJO1is9m42dnZ/tra2pTjx4/3SLItZDLZNCIigmpkZGQhzGxdX1/fF87Ozugaddjrs88OBYHwdYFwIigo6OY+M4fixUSAzWZzS0tLf5SUlISOHf7Nj0wmq5mamhaGhobGCzPdOTMz09/d3R0gyancurq6twICAj7H8lWGwKCQtWgJgr5Mvzc+Ol6ora3dERUVtW9BqcTUBSRWDZfLVc/NzfV1dXXNMDExSTA0NHRSU1NTQw3COjgKY0xPT0+ui4sLCigksUG1srIyIyws7K4wzxqbzebU1tZmhoeHFwjDA/LujQAIhF2cqqqqIsLCwir2hg5SSTsBtMO7vLw8KDMzc+hVbS0qKrKIjo4eQLvShXlpdXZ2/snDw+M7kuKBjuW5u7vnubq6YrpDgjdo8Y6QotsHx8bG2mk02u3x8fFCS0vLMQhli927nZ2d2q2trZEeHh4nrK2to7S1tU2EmbHC0hI6nb5QVVV1ODU1tRdLfmHzoD7q4uJyzcPDI0eYZ216enqYQqEEnzp1akbYNkF+/gRAIOxilJuba3/q1KlB/tgghbQTQIPd8PDwfQcHh+TXtbWiouJsWFjYVfTCwvLSQtP16Ajl7du3486ePSsxYUkmk41CQkJQDA9LLHa8jg+yj81mszs7Oxump6evaGlpFXV3d89fvHgRAtNgfACQWGhsbDzm4+PztpOTU4CamhoRHYNAfkO8X7c0hLG6r7Khsm/fvv3WyZMnrwpbFpb86N0aHx/foKenZyhMH21oaPifoKCg72NpA+QRnAAIhF3MPvzwQ/tvfetbKEKZ4Ff5Cc4ecuwTAd6u7pKSknNJSUnXXlUNhUIh6Ojo3Pfx8dles8cyNY/qGRkZaVpZWYny9vZe2ydz+BaLBEJoaGiLiYmJJRY73iQQ0L+hxwEt17DZ7I22trb6np6eD2NiYorNzc0FjmjJ1xgFSYA27KWkpBgMDg6mOjo7v+vh5naId2RyPxAggZCXl/etrKysy/tRPr8ya2pqLgYHB/8FqxhH5aPnraqqKiQyMrKOX33w76IhAAJhF8crV64YJCQkPDc0NETx2EVDGEoROwH0MpydnR1ra2sLio+Pn3pVA8hksnNycnIrgUDQwNpAVE9HR8fPfHx8foO1DFHkQ1+laurqFfZ2dodEKRBe1za0X2FjY2Oxv7+/sre393NHR0eKn58fiAWMzkRilU6nW+jp6aWYmpqesre391FRUVHhFSeKExGor5LJ5HM5OTmvFMwYm76nbBQKRcXGxuahnZ1d9J4yvCIRav/o6Cg6puufnZ29hLUcyCcYARAIu3iRyWTtgwcPttjZ2TmK40UrmKsg9V4JoBdqV1fX/7m7u198XSCVpqam7x86dOj3wghBBoPBuHfvXvB+X0O9F7ufPXv2n15eXj8Wxp691MNLwwvOs7m5ubm8vDzy4sWLx93d3bmnT59uhtj4gpD8eloKhaK9urrqZmFhkaavr59ibmHhgldW3j6SIsw7aW1tbb2goCD2zJkzT7G3DltOMpnsEx8fX0EkEknYStg+sol79OjR+/Hx8e9DcCSsFAXPBwJhF7OioiJNa2vrak9Pz4PietEK7jLIwY8Ah8Nhl5aWJiYmJj56VVoU+8De3v6xg4NDsDB+7uzsrFheXk6Uhg18xcXFvocPH6bwXsLC2MWP78v/ztvcyGAw1ubm5p7Nz88XdXV1PXBzc+uVl9sHBWUiivQlJSX6Gxsb/o6Ojtn6+vpHjYyMrNDth7svdOIX6pn372NjYzVDQ0MxUVFRG6JomyBl1NXV/SYwMPAnwvRJJovFelpT4xkVFSXRo5qC2C0PaUEg7PIiipBWXl7+cWRk5AVh1Lo8dAxZtmFsbKy3ubn5cEZGxsKr7CCTycHJycnlwp5eqK+v/2ZwcLDEQysjG3f67g/DwsL+E21626/Nbvz6BfrSQ4MSg8FYGh0drV5bW7s9MDBQ6ezsPAligR+91/87elFvbW3Fe3l5Zenr6/sRiUS02W87zPObfiw2G7e2ujpfWVl5NjU1tQR7C7DlRLEh9PX1qSYmJp7CCISBgYGO/v5+/8TExE1sLYFcWAiAQHiJ2v379z9ITEz8gTCdGYsjII/oCKAvlpCQkJ+9rsRnz5792svLa/sWOKx+3tzcZOTn57vl5OSMiK7lwpWEovoNDw//KC4u7sfa2tq6WG0TphW8r9uvbt/E4XCrKyv0rq6uRwwG4+r09HRDTk7OoqxeVSwMG1HlLS0ttVpdXc308/M7Z2Bg4KSpqan5uo3Vy8vLC42NjRdjYmLuiqp+QcrJzc2NSk9Pf4D2+mDtjzv3nPzo/PnzvxekbkgrPAEQCC8xvHv37qW09PRfCHOr35vcwlu7fdXUIO/lyu+r4FW3uvHrCjtlc/ml4/37Tvv2nH7nK3bPA66gwWJQRDgU5EUJxXB/hRG7r4F+8uRJUFxcXPOrbKVSqSRjY+M6KysrV37Ts69jhfLV19eXkkikFHd39629MhVXukePHjlubW39KCgoKF1HR8cATUvv9zG6vdiGuC0uLi41NjbeY7FYf2YwGOj2QSasKe+F3t+mQfeIlJWV2c3Nzb0bERFx0tjY2ALNKuy8H5iNjY0VNBrtB8eOHevGVoPwuWrr668GBgScRc8sFoGA+szq2tri8tKSo6Wl5StnBIVvJZTwOgIgEF4iU1paGhMdHV3Cd+4OY5/a2NjYGh4e7h0bG6tksVhfO0/OYr3yssFX1rRzAQ86WrenyGh4PJ6ppqaGjnAiQf7GIxrKyspcZWVlBrp6XhAzd2283lM2QdIrKSmtqqurL7LweGX1N5TOZDLZb7q1MDc3NzErK6tARUVFFRWD5aXF4XC4T548yY6Li7uzJ0MlkAgtOeTm5mobGxv7q6qqnvfy8jqmr6+vK4GmfFUl7/gp+h9sNnuLTqdPNjY25rNYrM9SU1Ofg1DA5h0kFD766CMNFxcXEy6Xa8lkMpmzs7O95ubmK1FRUXt/qWCr/rW5uFwuYWl5eZiorW3K76PnVYXw+kt/f3+5i4vL9nFk+ImXAAiEl3iXlZWFR0ZGUkQtEJhMJquzszN3enr6A2Vl5cHY2Nh1eCGKt7Oj2jo7O6+5urqewSIMeK1dXV1FF0DZvW6Pg/itenON6JjZ9PS0sbW1dQiBQMg6cOBAjLa2tp40zCqgr92NjY3VpaWlvmfPnhVsbGzcYrFYg3AttbT1IsHbk5ubm5qdnX2bJ8YFLQEJBPTevHPnzjunT5+WSIAnQdssb+lBILzk0crKSs/Dhw+34kW4y4vN/v/t3QdUVUmeP3CSBEFQRJKigkQJIpJBkgEEkSCigKAY2umZ3Z6entmZnd4J7s5O2OmZ6Z3w32kD0oCKgmQEARWVHARJkkQUA4igRCW//ynbN6M2yn333sd7cL+c0+f0OVb9qupTxXs/bqianCgrK/vZ2NjYn0XxFPF8W7R0x5Ofn69mYWFRpaqqqkM3Bql37dq1lKdPn+6ai19iJFm4d++eromJyRZVVVVyToCdsrKyEhMPunXffF5BguxmKSEh0d/f39vX11fe0tJyYWhoKHfnzp0P6cZHPdEJkHWmoKCQZWdnt4VuL8j6ePbsWUdbW5uVnZ0dbi/QhWRQDwnCO3hnzpxZsnv37ifS0tKvLkEz/SG3DcrLy0/39/cfwhO4TDWZ1T979uy+oKCgk3T2wed/mZGtlZOSkraHhobmMeuN6GuTJ8xv3bplbmRk5K+lpeWjoqJirKCg8OphsikeT0J6hifkhTUCYk1u4/T29nb29vbmPX78+MKzZ8/Kdu3a1YOrbsJSZzfujRs3tGxtbdvk5ORob0RG1kF9ff3XFhYWkez2DtGoCiBBeEfq2LFjKgcOHOiWkZF5dfIa05/R0dGxoqKitZs2bcIZD0wxGdZvbm7O09fX30x3u1dyOby/v/9BZ2envjg+nMiEp7W1Va6wsNDBzMwsQk9PjxwotFxWVpaVJFnQfvHvPZN54v9/V1dX26NHj5KHh4fTRkZG6ry9vQV6PkbQPqA8M4Hs7OyDW7ZsOSEtLU17S1pyaFhSUpJfaGjorL+eyWz086c2EoR35jIhIUHB0dGxcfny5avYmObm5ub62traDcHBwWL3tDsb45srMaqqqpYZGRk1L1y4cAmdPvO/qIqKik64uLh8RCfGXKlDtm6uqqryNDQ0PGBhYeEkLS29iL9BD3nYTNA3UNgcNznut6Ojo7WhoSFBTU0t/vnz53e3bds2hisLbCozi1VcXEwuROVaWFg40304kfSgo6OjZnh42NnU1BTHjjObEtq1kSB8+wrCAhcXl1JjY2Mr2qpvVExNTT3t7++/T5TnsLMxjrkeIyYm5vvh4eF/Iq+B0RkL+VJ88eLFi4yMjC0hISHFdGLMtTrkQKGwsDClioqKAAMDg8MWFha2UlJSC8jjOUwe8mTiwL/V83pDpsm7d+82V1dXR2loaJx1d3fvYhIbddkRuHDhgvGOHTvqyXNcdBMEcourvq7uV5aWlr9gp1eIQkcACcI7auThmoULF163tbV1pAP6bp3z58//effu3WTjJYH2FGCjbcT4RiArK0tOV0+vwtjIyJyuCflievLkSbWmpqatpKSkyF4do9t/pvWI4dTU1HIFBQUfDQ2NMCMjow3S0tL/OFCIxBfVlQXy3u7Lly8HOzs7q0pKSuJtbGySTUxM8FAb00mnWb+oqOgnjo6OtA8wI8nf6OjocFpamltISEglzW6gGgsCSBDeQSTvFCdcuPCn4KAgVs4cLykpKRgdHfUQ5fvILKyTOR2ioKDA0MHBgfxFQ/ueOvnyKykp+bWTk9PP5jQGC50nZ1kMDg6u0dXV9VVVVQ3S1tY2Ja+y0X22g4Uu/eNZBR6PN0n2V3j69GlRfX39OR0dnXx7e3s8r8AGMoUYhYWFizQ1Na+uWbPGmkLxaYuQBKG1tTW/s7PTG2990VVkpx4ShGkcT5069R+RkZH/zQbx7du3qwoLC+2PHDny1qZIbMRGjJkFSMKXnZ39U09Pz/+WkpIS+IEp/iXtgYGB/osXL7qFhYXdmrlV7pTIyspSHh8ft9PX199JDhRSU1PTlZGRkea78R80nI1bEm/upklmgGxE1tvb29zb25vb0NCQpq6uXuXu7o772UJcnmlpaS7btm27vGDBAkbJeEVFxcd2dnZfCbGrCE1BAAnCNEjHjx//7sGDB//KxmZJ9+7da25sbFyHVxwprEYhFElISFCxsrIq19PTM6TzJcV/OPH+/ft5urq63ly8vUB1Wsg+E93d3a7r168PW7p0qcOiRYvUZWRk/vHMBx1/qm1/qBz5i3RiYmLs/v37twYGBhLv3buXra2tfVccTuFkY3ziFKO2tvaPpqamn9F59oA/joGBgaGcnJz1wcHBd8RpbFzsCxKEaWb93Llz6wICAspkZWU/tKsvpfUyMjLy4sSJE1qffPIJLnNSEmO30OXLl208PDzK6d4f559hUVxc/F1nZ2f8RUNxei5duqTV19cXYGdnF7Zs2TIzBQWFReQKDt3zLyg2+95L1m8mJ2NjYyNNTU0lfX19caOjo5f7+/uf4C0jJsLf1CUJor6+fuHy5cuNmCSDlZWVqQsXLtw9314lZi48+xGQIExjnpOTY+zq6lpNjgNmOiWTk5PjUVFRy44cOdLPNBbqCy5ATna0t7f/ieA1v6lBvtD6+vqeZmZm2kVERLTTjcPletevX9d5/Pjxfjt7+/06OjqrpCQlpYkHk78y2fAkc0v2Kamurr7x8OHDv6qoqFzBFuj0ZS9cuLDT398/gVx5pZMg8G8RFRYW+ru4uKTR7wlqsiWABGEayeLi4uUWFha3FRUVlZlCk22WS0tL1zg7O3cwjYX6ggkkJycvtbGxKV6xYoWhYDX/WZp8aNXV1cWnpKTsPXr0KKWDsei2NZ/rkWdBrl27JicrK6v/vL9/r5Wl5R4tLS1W9hoR1O3dZxVe79w4OTIy0n/r1q0rjx49Ounk5FSgo6NDDizDD0WB5ubm8wYGBsGkON0EYXBwcDAtLU0/IiKim2KzKCZEASQI0+CSk/BevHjxSEFBQZPOQn8zJNnYpaioaKOrqysn3p0X4loVOHRubq63h4dHBnkdW+DKryuQ+9dlZWWBjo6OKXRjoN7bAiRZiI2NVV29erXpwoULd61YscJPXV39H+djiPJtCDLfY2Njo4ODgw/a29vzmpqa4iIiIirw7MmHV3FqaqqOs7Nz2dKlS7Xorndif/ny5fOysrJ78dYXXUV26yFBeI/n8+fPH6moqGizkSBcv37dfdOmTTfYnTpE+5AA+RJqaGg4vnbt2kNM5rD76dPHuTk5ze5GBwAAIABJREFU1uHh4Z0QZ1+AbMa0du1adXV1dQd1dfXdGhoabouXLNGQkhT4hRNWOvfm1QXy/y9fvhzu6+u7/eDBg9S2traM9evXN+Pe+LepU1NTv7d9+/a/MEnGyTHV2dnZnn5+fvmsTCaCMBZAgvAewnv37lWsXLnSmsmXCwk9OTnJy8vLC922bds5xrOFAJQFkpKSVjg5ORWqq6uvojOHb2yt/FVXV9e/zMWTGyljiUlBktQlJiau0dDQ8Fy1apX/4sWLrRctWrSY3z1RXlkg64G86trd3V3a09OT0N7efiU0NPQBdkh99ZyOZEdHx3UdHZ2NdH/XyBw/e/bsQV1dnSH2PhCTX0gJCQkkCO+Zi8bGxgxDQ8PtTB+kIh8sqampXwQGBv5YfKZ9/vckJydn36ZNm6Ilyd7KNE4l5CcIhYWFrq6urrj6M8tLhsfjSZ8/f95kyZIleywsLHYoKyuvkZeXX0hnLtnoOn898GP19/c/vXPnTt74+PjZ+/fvV4aEhJCTJifZaGuuxbh48aLhRheXcsWFC1Xozg+5vXDp0qU/e3t7Y9dZMVoASBDeMxkFBQXJzs7OAUzninywZGZm/u+OHTt+wDQW6lMTIH/RtLe3p+jq6vpRq/HtUuQD6+nTp51paWkmeAOFriI79cgzQeeTz9uqqagdsrS03LZo0aJlb27EQ/cVVnZ6JyHR09PztKamJoPH40V3dnZW37179yWXHmhNSkr6r8DAwJ/T9SS/ayMjI0PZ2dlOQUFBtXTjoB77AkgQ3mOamJj4o8DAwC/oZsT8sOTD68aNG+d4PF44HrxhfwFPFzErK2uNnZ1dqaqqqhrdFsmHVnJy8h+DgoL+Dedo0FVktx5J/EpKSuS7urocFBUVP3J2dvaVI1cVXj+vQOfyNhs9JGuF/PB4vKnnz593Xb169cKiRYuOlZeXN833ROHo0aMyhw8fbtTW1tana0k+I7u6uqq1tLQ24HeNrqJw6iFBeI9rXFzckdDQ0K/YSBDqGxrqb1VX20dERAwLZxoR9U2Bixcv/runl9dvpGlsrcyPMzo6OlpeXm7l4uJyG7riJ0AOVXvw4AF5E8JRQUFhn5GRkbuioqLKu0mCKJIG8oU3Njb2oqenp626ujpJQkLi/Pbt25vn45dfbm6upYuLS5mcnJws3VVCvMh26D4+PrQPeKLbNup9WAAJwnt8jh8/vmffvn2nZWVlX23qQveH/HVx79691ps3b1oFBwdjH3i6kBTrkcvRjzo7S7S/OXWRYq1vF3v06FFza2urGa760CactYoNDQ2ydXV1Onp6eh6LFi0KXrVqlYOcnJwi0+Se6QBeP7fAGxwcfN7X11fd0NCQKC8vn+nh4fF4PiQL5HctIyPjrz4+Pt9lYv38+fOeq1evOgYFBbUyNUd9dgWQILzH89y5c4be3t4VSkpKyky+aEj4np6eruTkZPMjR470sDt9iPauQHJystmWLVuKyCZXdOaN/6Gelpb2m8DAQM6f3DjXVhg5lvrJkycm69at27F06VJfdXV1U3l5eQVRbPHMt+O/Ojk1NcUjJ0329PTkk2dkeDxegbe399O5Zszvb0JCgqqHh0fTkiVLltFJEPgu9+7du6irq7sDb4SI30pAgvCeOcnMzNRzcnKqUlFR+dZlS0GnkdybjIqK0j98+DC26hUUT7Dykunp6b/39vb+EfnAopMgkCs+w8PDffn5+TZ+fn44LEYwf7EqXVlZubClpcXGxMRk9/Lly7cuWrRopays7AI6X2ZsDYz/pUg+Ezo7O+90d3dndnd3p0pLS9du2bJlTm3HfuPGDU9nZ+dLxIbu7xpJmnJzc/f5+PjEsWWMOOwJIEF4j2VDQ4OqhobGLVVVVR06i//dsOfPn9ffs2dPG3tTh0jvCiQkJMi6uLg0qaur6zL50Hrw4MH11atXu0F4/gg0NDQoVVVVbbawsDiop6dnr6CgsERaWprR7UM6Ou9u80xi8Hi8yfb29uaOjo5zk5OTqSMjI22+vr4v6MSfrToJCQnS2traJx0cHPbT3Z/i9cOJHRUVFQ5+fn6PZ6vvaIe6ABKED1j19PTUqaqqmrGRIBQWFtpv3LixjPrUoKSgArm5udZubm5FCxYsoP3A1OTkpERKSsr3du3a9X+Cto/yc0Ogurp6cV1dna+ZmdkRMzMza2lpabJeXj2wIqqrC/w3IUi+0NzcXF9XV3dSV1c3ISsrq1sc34Q4deqUTmBgYLWKispSurNOxtzU1PSVqanpx3RjoJ5wBZAgfMD34cOHtcuXLzdnYwpKS0v3ODg4nGcjFmJ8W4D8RSMnJ3fM19f3IJOErqenp7O2ttZm06ZNj+A8vwXIFaclS5Zojo+P71i9evVBQ0NDCyZbBTPRen1g1KsE5fX/T01MTAzfvn37cl9f3w82bdp0n0l8tuuWlZWF2NranmUYl3fx4sVt27dvz2EYB9WFJIAE4QOwTU1NZwwNDUOZfOHww5NfKHt7e2y3LKSFfObMmSVeXl6tS5YsWUpnvviXftva2hL19fV3z4enzIVEPS/D5uTkKE5NTa1RVVXdvmzZsl0rV640l5KSenULQpQbMb3e4rn7ypUrhwMDAzPEYV2St0Z4PN6FtWvX+tL5XeMvoHv37jU2Nzc7e3l5PZuXi2oeDAoJwgcmsba+/pjZ2rUfMfkl4IcvKSv73NHe/rfzYM2I5RDy8/O9XF1ds+l+mJN65OTNS5cu7fb19b0gloNEp2ZFICUlZbGMjIzl6tWr/RcvWeyjraW9RorBnhpMO00uxT9//vxpdXW165YtWxqZxmNaPzY21iwgIKBwIYOtlUkfysrKfmVnZ/dLcUh6mJrM1/pIED4ws9evX/+di4vLT9iY/JKSklhHR8d9bMRCjLcFyKY5cnJypxwcHMLp2pAEgTxVXl9f7+Tp6Ymz6OlCzqN6ZOfGa9euLe3t7XU1NzcPUlNTc1FRUSFHwEu9+UcDG39AUGGrqqo6MTAw8F1R781RWVn5Qysrqz+QPtMZO0l4pqamJq9cuWLr5eVVRWXsKCMaASQIH3BPTEzcFRQUlMDG1FRXV8dZWVlFsBELMd4WiI+P19m6dWu1qqoq7QemSIJQX1//pYWFxWfwhcB0AqmpqTo8Hs/f0tJyl6qqqrmSktJiuk/w0xF+9vz5s4uZmdYREREie126tbVVTlZW9sqKFSucyBjoPNRJfteamppu1dfXb8TmcXRWwuzVQYLwAevo6OjA8PDwJDbehmpqairp6OjY4unpie2WWV7fxcXF5PmOs3T+muF3hdxeuHjxorufnx9ObmR5fuZbOHJlITs7W6+/v3/vxo0bdy9btkxPRkZGlpwcSvevaipG5C/vpKQku+Dg4HIq5YVRJjY21nnXrl055GRNuvHJ3geXLl36gY+Pz5/pxkC92RFAgvAB5zNnzmzw9/e/tnDhQiWm0/HgwYN7paWlG4KDg/FADlPMN+qTY4Fv376dZGxs7Efnrxl+qLa2tob29nanubZZDYuUCEVDgLw9o6ysbDw6Onpgg7X1Hi1NTW0m6/BDXSAJQnp6ul1AQIDIEoSqqqo/W1pafsIkGZ+YmJgoLy/Xd3JyEqs3M2hM/7yvggThA1OclJS0wsPDo2rx4sXLmK6EJ0+e3L9x4wY5jwEJAlPMN+qfPn16ra+vb7GSkhKts+jJhy75sCstLf2Fo6Pjr1jsGkJxSICcS5CYmLhIY/nydRITE6EmJiZkq2fyvMKrqwr8rZ6ZfLGSv7zj4+Pt9u7dWyEKWrLZlJqaWtWyZcsMmIyjpqamvKWlhdxeGBPFONAmdQEkCB+wys3N1bawsKjS0NDQoE46fUly3vm5c+dsIiMjm5jGQv1/CpSXl/9ww4YNrx6YovOXG/+BKbLJko+Pzy3YQoCpwNGjR6VWrVqlvmbNGjtVVdVgTU3NTUuWLHn1GUJnjfL78+jRo7vFxcX2wcHBIjm/ISYmxm/Pnj0JZCMyugnCxMTEZEJSwoGwPWGxTJ1RX/gCSBA+YEze91VWVi5YsWKFLdOpIF9Ep0+fttu3b5/ILg8yHYO41ScPTMnIyOStWrVqI90PLDIvzc3N1fX19S54YErcZnju9+f1lYVVWlpa3tra2v5qamq25AA4/oZIVNYtf4+OkpKSnzs6Ov5aVK8FVldXJ1tYWATQfTCTjGNoaKj7yZMnBgYGBgNzf3bn/wiQIMwwx/fu3ctftWoV4335yS9Henq6k7+/f/H8X1azM8LTp0/b+Pv7X1FUVFxEt8XJyUleTk7Opz4+Pn+hGwP1IEBFgDyvICEhsVZdXT3A0NDQX0VFxVBeXl5xpisLZPvvO3fuXL19+3ZwYGBgL5W22C5TWVmpYmho2KqkpLSMSlLzbvuvT0mVqK2tTVm/fn0g2/1DPOEIIEGYwbW5pSXD0MBgO9PjYkn90tLSI46OjseFM5Xci1paWvqFra3tj+h8YPG1xsbGxiorKw3xwBT31o8oR1xZWbmgpaXFTltbO2LdunVeioqKGtOdITIxMTHe0tJyo6+vL9TJyUlk+3PExsbu37Nnz0lywBWd2yTk829sbGz8/Pnzu/bt25cmSnu0TV0ACcIMVo2Njf9pZGT0C1KMyRcR+QW5desW2WDkT9SnByXfJ0BuL6ioqNxSU1MzZjIvtbW1ZePj4xutra3HoQ0BUQiQZIFsOayhofGJubm53RJVVbXhoaHh9vb2mtu3b/8tLCwsSVS3FYgHObPC0NCwcN26dTZ0fcjn39OnT+9MTk6u09bWFuuTKumOcT7WQ4Iww6xWV1f/ct26dUfZSBDq6+t/amFh8bv5uJBme0wxMTGbg4ODM+Tk5OTpJgiTk5OTZ8+ePRQREfH1bPcf7UHgXQFyC0JBQUHu8ePHC5YsWTL5/Pnz0SNHjog8cb1y5coqZ2fnVllZ2QV0Z+31H0h/tbKy+oRuDNSbfQEkCDOYX7l2LdJt48ZTdB/M4YcnvyCNjY0XTE1Nd83+NM+/FsvKy0/bWFuH0U0OyMOJL1++7GlqatK3trbun39CGBEE2BHIyMj4zMfH5w/8VzYFicp/wPLly5cv0tLSPENDQwsFqY+yohVAgjCDf2JioltgYGA+GwnCnTt3sgwNDX1EO+Vzv/XKysqFa9asaVVRUdGmkyDwP7Ru1dSkW61f7zf3RTACCAhHIC0tbZGRkVGhgYGBBZ1nD0ivyO9bR0dH0fj4+CYDA4NR4fQUUYUhgARhBtXo6OiN4eHh16TIcW7f7HlC64f8kty7d++6rq7uFklJSZFfNqQ1CDGpFBcX50/ex5aRkaF1yZP/wFRycnJIaGhokpgMC92AgNgJ5OXlrffw8KjgH30taAfJlTryU11d/e/W1tb/I2h9lBetABKEGfzPnDmzysfHp1xZWVmdSYJAflE6Ozsf3bx5c4Ofn98T0U773G2dnNwoLy+fZW9vv4XuKPgPTPX09Kw3NTUdohsH9SAwnwXImRNlZWX/aWdn93O64yS/a4ODg/0XL150Cg0NbaAbB/VEI4AEYQb3hISEZc7OzlWampormCQI5Belp6ens6KiwsrHx6dLNNM991vNyclRd3d3v79gwQJ5uqMhc1FbW3vc0tLyCN0YqAeB+S6QkJCgamNjU7x69WojumMlv2u3b9/OMDU1DZSUlJygGwf1RCOABGEG90uXLqkaGxuX6ejo6NO9B0eaIFcQBgcHn+fm5joEBwc3i2a6536raWlpB3x8fMj72LTv97x8+fJlamrqVjwwNffXA0YgPIHs7GzPrVu3ZpO7q3RbIZ975eXlux0cHBLoxkA90QkgQZjBnlxma2lpSTIwMHi1xSjdH5JJk8NWvv76a+9Dhw5dohuHab329nb5goICRw0NDT89PT0zVVVVQ0lJSbLDm1j/8B8slJKSUlZRUVFkMhcTExNTfX19PVJSUpNM4og12BzrnKS0tISsjAyjvUbm2JDFvruSkpIL5eXlVZh2dHh4uFdKSkrsD2YinzEjIyNTPT09zXfv3q158eLF6cDAwFuSkpLfPEjBwR8kCBQmvaamJtHc3DyI6ZcJWYCJiYk+u3fvzqLQLKtFyLHImZmZvuvWrft86dKl5vLy8rT3D2C1YzSCMZ0H0iQ/4aDRPKqwLEDmk+lOpSx3CeE4KsD/XJji8SSGh4YG2tvbkx8+fPjZ9u3bn3ORBAkChVmvqqr6g6Wl5Q/Z+GK6evXqdzdt2vR3Cs2yVoQkBxUVFb8yNTX9VwUFBaU3P5DxwcwaMwJBAALzRICfKJCzWtra2tIVFRVDdHR0Xs6T4VEeBhIEClTV1dWH161bd5yNBOHmzZt/tLa2/hGFZlkpQk6Ty83N/dzNze2XMjIyMkz3c2ClUwgCAQhAYA4IkERhfHx8IjEx8dDevXtj5kCXWe0iEgQKnGVlZQdtbGxOspEgNDY2frl27drPKDTLSpHCwsKV1tbWjXJycgv5WTEb42ClcwgCAQhAQIwF+J+ZpaWluQ4ODl6iPBNDFExIECio5+Xl2W/atKmEjS/Wtra2bH19fW8KzbJSJCsra/fWrVvjmTz1z0pHEAQCEIDAHBUoKi7OcnJ03I4EYY5OoDC7HRsbaxYeHl7HRhsPHz4s19HRsWMjFpUYaWlpf9y+fftnTF7RpNIOykAAAhCYrwKnT5/+cXh4+BfzdXzvGxeuIFCY8RMnTphERkbWSktLy1Ao/sEiXV1dFZqamnazkYk2NDTIDg0NZdjY2Gxl4+oH07GjPgQgAIG5JEBuMUxOTk7FxMQcOXTo0Mm51Hc2+ooEgYJiTEzMUk9PzyoNDY2VFIp/sMiTJ08e1dfXb9i8ebPQt1tOSEhQ2rBhQ/Xq1asZbfLEdMyoDwEIQGAuCpAEgZxEefHiRfvg4GBWriLPJQckCBRmKyEhQcXW1vbmqlWr1lAo/sEiz58/f1ZSUkK2W77PNNZM9U+cOLFi7969TfLy8oozlcW/QwACEIDA2wKvz5IYqKqqWufu7n6Paz5IECjMODleWE5O7rKZmZkDheIfLDIwMNCXnZ1tt2fPnhamsWaqn5ycbBIQEHB7pnL4dwhAAAIQ+LYASRD6+/vvL1682ICLp/AiQaD4W1FQUHDc2dn5MMXi7y02NjbGi4mJCf3oo4/OMY01U/3S0tKddnZ2F2Yqh3+HAAQgAIHpE4QnT540a2lpGXPRBwkCxVm/fPnyV5s2bWJ8+h85vCQhISEiJCQkjmLTtIuVl5d/bGNj83+0A6AiBCAAAQ4LkM/r1tbWC8bGxru4yIAEgeKsX7169RNXV9c/M92JkFyySklJ+WTnzp1/pdg07WKlpaXRdnZ2+2kHQEUIQAACHBYgCUJlZWWcnZ1dBBcZkCBQnPWCggJfJyendKavC5IFV1ZWFufo6CjUBVdcXKygoqJyae3atS4Uh4hiEIAABCDwhgD5vE5JSfk4KCjoKy7CIEGgOOtFRUVbHRwccsgVACabDpEF19jYGG9mZhZKsWlaxRISElSdnJyqtLW1V9EKgEoQgAAEOC4wMTHBi4uLCztw4EA8FymQIFCc9fz8fGNXV9dGNhKE9vb2HH19fS+KTdMq9vXXX5vu2bOnQk5OToFWAFSCAAQgwHGBoaGh/oyMDKfQ0NAGLlIgQaA469HR0ZoRERGdpDjTKwhPnz5t09TU1KfYNK1iGRkZzt7e3gVM+kqrYVSCAAQgME8Eenp6eqqqqqw8PT0fzJMhCTQMJAgUuf7+97+rHzp06KG0tPQCJs8hkFsMAwMDd5csWcJ406UPdf3mzZufrl+//ksmfaVIg2IQgAAE5qVAd3d3lbq6uq2kpOTkvBzgDINCgkBx1mNjYxVdXV3rdHR0dJl86ZIEob+/v+vhw4drLSwsnlNsXuBiNTU1vzY3N/+cSV8FbhQVIAABCMwjgYcPH5bq6Ogw3iBvrpIgQaA4c/n5+fIaGhpVRkZGJkwu27/eunOopKRkvZeX1x2KzQtcrKWlJUNfX58cTypwXVSAAAQgAAEJsgfCV4aGhh9z1QIJAsWZJycj9vX1XXZwcNjI5Ev39eEfw5cvX97g5+fXTLF5gYrl5eWpGBoaFuno6Jgy6atAjaIwBCAAgXkmUFVV9fsNGzb8ZJ4Ni/JwkCBQpOLxeJLJyclfBAQE/JDJly5JEMbGxsbPnDkTdPDgwXSKzQtULCkpaYWrq2ulqqqqBpO+CtQoCkMAAhCYZwI5OTm7vby8EubZsCgPBwkCZSoJidOnT/8qNDT0Z0y+dEmCwJOQkPg6OvoHBw8e/F8Bmqdc9NSpUx5hYWE5CxYskGHSV8oNoiAEIACBeSRAPqenpqZ4sbGx2w4cOJAzj4Ym0FCQIAjAdebMmYO7d+8+Li0tLSVAtWmLnj59+ofh4eF/YhpnuvppaWm7duzYwdmsVximiAkBCHBH4PUpjj15eXm2wcHB7dwZ+dsjRYIgwMwnJSVZ+fr6li5YsGCBANWmLZqdk3N2m6fnXklJSXJBgdWf6urqLywtLX/EalAEgwAEIMARAfK22dOnTztv3rxp5ePj08WRYX9rmEgQBJj53NxcS1dX13JZWVnGCUJNTc211NTUTUePHp0SoAuUira2tibo6+tz8vQxSkAoBAEIQOADAiRB6OjouNbb27vV2tp6nKtYSBAEmPny8nLNdevW3ZGVlVUUoNq0RVtaWori4+NdhJEgdHZ2lmlqatoy7SPqQwACEOCiwOTkJHnFMcPExGQHF8fPHzMSBAFmPyEhQXbHjh3dcnJyKgJUm7ZoZ1fX/ePHjukfPXp0gmmsN+tfLi3VsNDTu7ls2bLlbMZFLAhAAAJcESDPINy+ffu/zczMfs6VMU83TiQIAsz+sWPHFoSEhHQuWrRoqQDVpi06NjbW9/XXX6sfOXKE1ctXcXFxRn5+fqWLFi1azLSPqA8BCECAiwIkQaiurv7Bhg0bhPKm2VwxRYIgwEzxeDyptra28jVr1mwQoNq0RUdGRweqq6o0HR0dXzKN9Wb9U6dOhYSHh5+RkZHBFopswiIWBCDAGQGSIOTl5W319PTM48ygpxkoEgQBZv/o0aNSO3fuvGpmZuYqQLVpi46Ojo5WVlauc3Z2ZnU3xdTU1B/5+vp+wWQ7aKZjQ30IQAACc1mAJAgxMTG2kZGRFXN5HEz7jgRBAEGym+LVq1eTPDw8AgSoNm3R8fHx8WvXrtlu3br1FtNYb9avqa09Y2ZqGooEgU1VxIIABLgk0NfX9yQ9PX3Dvn37HnFp3O+OFQmCgLMfHx//+e7du39NqjHZpXB8fHwiMzPTPTAwsFDALnyweEdHR+mKFSvsmPSNzf4gFgQgAIG5JtDR0XG/rKzMKjg4+Nlc6zub/UWCIKBmVFTUp/v37/+SfAEz+RIm23iePn36R/v27WNtN0VyC+T73//+HRUVFUZHUgtIguIQgAAE5pVAXV1d1tjYmD+X90AgE4oEQcBlHR0d7R8SEpJANktimCBIxMfH/3rv3r0/E7AL7y2ek5OjY29vX6OkpLQEtxjYUkUcCECAawIlJSWxjo6O+7g2btxiYDjjycnJhp6enlUKCgqKTBIE8hBMSkrK3wIDAz9ha7vl2NhY66CgoBvy8vIKTPrGkAjVIQABCMxpgdLS0p84ODj8fk4PgoXO4wqCgIhZWVlrnJycbi1atEiJyZcwSRAqb94s73n61MXb23tUwG5MWzwqKupf9+/f/xdcPWBDEzEgAAGuCpSWlu5xcHA4z9Xx88eNBEHAFdDV1aUoJyfXrKKispxJgkD2+m5ubm4kD8JERkaOCNiN6YpLpqSk/MnPz+9T8o9M+sZCXxACAhCAwJwVuH79uqObm1vJnB0ASx1HgkAD8vnz520qKip6TL6EyRWE+/fvtxUUFKyLiIgYptGNt6qQBxQDAgOvWpibM96jgWlfUB8CEIDAXBQgf7iRz/X4+Pg1YWFhd+fiGNjsMxIEGpqPHj1q0NTUXMvkUj5ZiGNjYyPx8fErDxw48JRGN95NEGS+853vtGpoaKxmGgv1IQABCHBVoL+/vzcxMdH08OHDT7hqwB83EgQaK6C5uTlJX18/kEmCQK4gkJ+YmBityMhIxueNFxcXK1hZWXXJyckp0xgSqkAAAhDgvAD5XL57925rVVUV2QNhiOsgSBBorICampqz5ubmIUxuMZArCOQnOzt7zfbt2xlfysrPzzd2cHC4JScnJ0djSKgCAQhAgPMCrx8ev9Lz9KkPWw+Pz2VUJAg0Zu/y5ct/cHd3/yHTKwhkMRYXF2/ZuHHjZRrdeKtKUlKS+44dO3JlZGRkmMZCfQhAAAJcFCB/uGVnZ//v9u3bf8DF8b87ZiQINFZBfHx8+O7du2OZXEHg32IoLCzc7uLicpFGN96qEhsb+59hYWG/YJK0MO0D6kMAAhCYywIkQcjMzPzcz8/vt3N5HGz1HQkCDcmTJ0+G79+/P1ZaWppG7W+q8BOEgoKCMFdX17O0A30TSzorK+uUl5dXBBIEJpKoCwEIcFlgampqKjc3d9O2bduucdmBP3YkCDRWQXR0tE1QUNBVJSUlJRrV36qSm5v7paen52dM4kRHR8vb2dlVGBkZmSFBYCKJuhCAAJcFJiYnp4oKC+3d3Nw4fcwzEgQGvwUXL15c5ejoWLV48WJVBmFeVb127doxd3f37zCJc+bMmSXbtm27Q/rD5LYHkz6gLgQgAIG5LjA5OTmenp6uFRgY2DvXx8JG/3EFgYZiVlbWCmtr65vLli1Tp1H9rSrl5eVn79+/HxEcHDxJN1ZMTMzyvXv3PiT1cQWBriLqQQACXBcYfvly8Hx8/PKDBw8Oct2CjB8JAo1VQO75d3Z2lmtpaVnRqP5WlaampoaWlhYHPz8/2guysLDQ2cHBoYDpEdRMx4L6EIAABOayQEtLS11NTY11cHDw2FweB1t9R4JAU/Lhw4dly5cvt6VZ/R/VOjo62srKyjYEBwf3042vjyS2AAAgAElEQVR17dq1ABcXl2RSH7cY6CqiHgQgwHWBioqKkuHhYRd3d/cJrlvgCgKDFXD37t0cXV3drQxCvKra09PzIC8vzyo0NLSHbqycnJw/b9my5RMkCHQFUQ8CEICABDmD4bchISH/ISkp+c1Wtxz/wRUEmgugsbHxT8bGxow30yCv1URFRVl89NFHDXS6Qm53lJWVnbazs9tDpz7qQAACEIDAN6+eR0VF/fjw4cNfwOMbASQINFdCZVXVHzasX/9DmtX/UY0sytOnT5tHRETU04mVlZWlbGRkVKGnp2dIpz7qQAACEICAhMT4+PhocnKy2549e0rhgQSB0RrIy8uL3Lx58ylGQV5vmHTt2jU3Dw+P63RiRUVFae/cufOWiorKMjr1UQcCEIAABCQkRkZGXhYVFVlu3ry5BR5IEBitgcTExG07d+7MYvpQILmCUFFRcdjOzu4knQ6Rqw+hoaG1TPtBp23UgQAEIDBfBIaHh3uGhoZWa2pqDs+XMTEdB24x0BSMioraum/fvmwpKSkpJl/OJEGorq4+smHDhuN0ulJUVBRkb2+fiP0P6OihDgQgAIFvBAYHBx8pKyuvgMc/BZAg0FwN8fHxOl5eXpUqKirqTBIEcjhITU3N/1hZWf07na7cunXriIWFxVdM+kCnXdSBAAQgMF8EyB9qd+7cuWZoaOg+X8bExjiQINBUJHAbNmyoUldX12Ly5UwShNra2gvr16/fRacrt27dirOwsNjLpA902kUdCEAAAvNBgCQH5L+ampp0Kysrv/kwJrbGgASBpmR+dfXi1YsXF61cuXItk8v7ZGE2NzdfMDExEThBaGhokJWSkso0MjLaggSB5kSiGgQgwGkBfoKQnp7+i4CAgF9xGuOdwSNBoLkaeDyeZFtb20VdXd1tTBKEyakpiXvt7TdHR0fdTE1NhwTpTkZGhpqVldVNLS2tlUgQBJFDWQhAAAL/FJicnJQ4e/bsRxERESfg8k8BJAgMVkNjY2OGoaHhdiYJArnF0NnZ+bC4uNgqODj4qSDdOXXq1Npdu3aVKCoqKiNBEEQOZSEAAQj8U+Dly5cvkpKStoSHhxfDBQkCK2ugvr7+f0xMTH7MNEF49uzZo+Li4g1+fn5PBOlYUlKSu7+//1Uc0iSIGspCAAIQeFugv7+/v6ysbL2np2c7bJAgsLIGbt269Zm5ufkfmSQIpCOjo6MjZ86c2Xjw4MFKQTpWWlr6qY2NzZdIEARRQ1kIQAAC/xQgzyD09va2TU5OrsMeCG+vDNxiYPCbUlpa+n1bW9v/ZXJ5nyxO8hMTE+MeGRl5TZDuNDQ0/MbExOSnJAbTJEWQdlEWAhCAwHwS6O7urtfQ0DCfT2NiYyxIEBgoXrx40WXbtm3XmSYI5As+MzNzq5+fX54g3Wlra8vT1dXdTOow6YMgbaIsBCAAgfkm0NrammJoaBg438bFdDxIEBgIxsTE2O7du7eMyV/v/FdsKioqfmRvb/9Hqt15/PjxwqmpqeLly5evo1oH5SAAAQhA4G0B8hlcX19/zMLC4juweVsACQKDFfHVV1+tjYiIqFBQUFhINww/Qaivrz+6bt26/6QaJysra4WNjU2VmpoaDmmiioZyEIAABN4RIJ/Bubm5n3p5ef0ZOEgQWFsDMTExS7du3Vqlqam5km5QfoLQ3Nz8+7Vr1/6Eapyvv/7aZffu3Tny8vLyVOugHAQgAAEIvC1AXjU/d+7czrCwsGTYIEFgbQ0kJCSo2tnZ3Vy5cuVqukH5Dym2tbXlGhgYeFKNk5iYuGfnzp3xePaAqhjKQQACEPi2wNDQ0GBiYqLbgQMHquCDBIG1NdDe3i4/PDycbWpq6kY3KEkQyJf8gwcPrq1cuZLyQSHFxcV/s7e3/x4SBLryqAcBCEBAQqKnt7e7tqbGatOmTY/ggQSB1TVQUVERa21tHU43KP8KwqNHj8oGBgZcTE1Nx6jEampqSjA0NNyFBIGKFspAAAIQmF7g4cOHtQMDA06CbnXPBU88pMhwlgsLC6OdnJz2Mwwj8eTJkye1tbVWW7dufUwlVldXV426uroFEgQqWigDAQhA4G0B/h9n9+/fv6arq0v56i2XHJEgMJzt4uLi7zk4OPyNYRiJ5319T0tLSqy8vb0fzhSruLhY1cDA4JaamprOTGXx7xCAAAQgML0ASRJaWlpOGhsbH4bRtwWQIDBcFaWlpXvs7OziGYaRGB4eHkxISKD0oExGRoaBi4tLpbKysjLTdlEfAhCAABcF6L5iziUrJAgMZ7uoqMjP0dExlWEYCXLcaExMTNDBgweTZooVFRUVvHfv3jMLFiyQwS2GmbTw7xCAAAS+LUBebyQ/169f3+fh4RELI1xBYH0NpKWlGe3YsaOJjcBJSUlBQUFBMyYI586d+zQ4OPjVIU34gQAEIAABwQXIFYQpHk8i4fx5t9DQ0OuCR5j/NXAFgeEcnzp1Si8yMrKNYZhX1XNzcz/39PT87UyxKioqUq2srPyYbPE8Uxv4dwhAAALzWYBcQXjx4kXfhQsXHCIjI1n5I2++eSFBYDijUVFR2sHBwY1KSkqMngcg2Wx1dfWxDRs2zLgf+J07d4r09PQccQWB4eShOgQgwFkBclu3u7v7YWFhoVVwcPBTzkJ8YOBIEBiuiqioqEWbN2+uXrly5RqGoSSamppOmJiYfDRTnIGBgUdKSkraSBBmksK/QwACEJhegFxBuHv3btndu3c3eXp6DsPp2wJIEBiuipycHMVVq1bdNDQ0NGLyhU2uILTfu1e0Rk/P+UNdqqqqWmZoaNiiqKi4mGHXUR0CEIAAZwXIZ+7t27cvmJmZ7eIswgwDR4LAcGVUVlYuGBsbS7K3t/dlmiB0P31ar6mhYf6hLiUnJ6/z8fEplZWVxSFNDOcO1SEAAe4KkAShpqbmi/Xr1/+YuwofHjkSBBZWRlZW1pdeXl6fMkkQSDd6enoa1NTUyO6I37x/M83PiRMnvnfgwIG/SOEJRRZmDiEgAAEuC1RVVX20YcOGE1w2+NDYkSCwsDKSk5O/CAgI+BGTUCSbffbsWW9DQ8N6V1fXB++LdebMmf8KDQ39OZO2UBcCEIAA1wXIZ25JSYm/k5NTGtct3jd+JAgsrIysrKzdnp6e8VJSUow2JhgYHOwvuHHDavv27Xen69axY8cW2NjYFK5fv96WhW4jBAQgAAHOCpAE4ezZsxZ79+6t4yzCDANHgsDCyrhy5YqLm5tbPpPL/mSxvnjxYjA1NdXpfQs2Ojpa3s3NrX716tWM35hgYdgIAQEIQGDOCpDt7ePj49cdPny4fc4OQsgdR4LAAvCNGzdsHR0dS6SlpaXohiMJwsTExFRMTEzk4cOHp93289ixYyoHDhx4IiMjI0e3HdSDAAQgAAEJiQcPHtwtLS0leyD0w2N6ASQILKyMy5cva7i5uT2UlpaWoRuOf3DI2bNnvxMeHn5sujhXr141cnFxaZCWlpam2w7qQQACEICAhER9fX3p6OjoJmtr6xfwQIIgtDVA/rI/ePDgU2lp6QV0G+EnCCkpKT8NCgr63XRxLl++7O7q6npZRkaG9pUKuv1DPQhAAALzSaCgoOCEi4vLjBvTzacxCzoWXEEQVGya8gkJCUqenp4dysrKS5iEI0lCcXFxkrOzc9B0cVJTU3/i6+v7O7zhyEQZdSEAAS4L8E9xzM/P/83mzZv/g8sWM40dCcJMQhT+PSEhQdbS0rLCwMDAgkLx9xYhCUJzc3OmiYmJ73SFMjMz/+rt7f0vTPdbYNJH1IUABCAwlwXI5yz5KSoq2rFx48aMuTwWYfcdCQILwuT1QwcHh1Jzc3MrJuFebbfc3l68Zs0ap3fjZGRkLNTV1S1cu3bteiQITJRRFwIQ4LIA/3ZuSUmJh7Ozcz6XLWYaOxKEmYQo/HtCQoL04sWLz23ZsmXaWwMUQrwqQhZuX1/fI1VV1RXv1klJSVlsZ2dXo6mpuRIJAlVRlIMABCDwtgA/QcjIyFjp7+//3k3p4CYhgQSBpVUQExPz84iIiP9iGm54eLhLSUlJ6904J06c0D1w4ECrlJQU3mBgioz6EIAAZwVIgjA2NjYWHR2t8/HHH3dzFoLCwJEgUECiUuTkyZM/PnDgwP8w/et+eHj4+d27d9dYWFg8f7Pdq1ev2rm7u5dS6QvKQAACEIDA+wXa29vbCwsLzSMiInDM8wcWChIEln6L4uLivHbv3p2+YMEC2q86kq6MjIyM3LhxY72np2fTm10rLi4OcXBwOMtSdxEGAhCAACcFyFsMtXV1tzofP7b39vYe5SQCxUEjQaAINVOxjIwM4y1btlTLyckxOoZ5bGxsJCUlxWrPnj2Nb7ZZUlLya3t7+89n6gf+HQIQgAAE3i9AbjGkpKT8NTAw8PuSkpLfvNKAn2kFkCCwtDDS0tKMSIKgoKCgwCTk+Pj4xNmzZ3fu378//c04FRUVMdbW1hFMYqMuBCAAAa4LkCsI5FTciIiIX3LdYqbxI0GYSYjiv/N4PPkXL150LFy4cBnFKtMWI9ltVFTUTw8fPvyP3RSzsrKUDQwNi/XXrDFlEht1IQABCHBdYGJiYiI1NXXHrl27srluMdP4kSDMJCTAvw8PDz9euHDht95AECDEq6JxcXG/fPONiLi4OC0vL6+bampqjGML2heUhwAEIDCfBMbGxsbz8/NtvLy8aubTuIQxFiQILKp2dnY2a2hoGDJ9kyE7O/v80NBQWHBw8CTpXlRUlPX+/fvLmBwnzeIwEQoCEIDAnBUYGRkZbmhoWG1tbd0zZwcxSx1HgsAidFNTU7ahoaEX0wShtra2qrS01P7IkSPjpHv5+fnbXVxcMnAGA4uThVAQgAAnBV6+fNkXFxenzv985SQCxUEjQaAIRaXYzerqDEsLi+1Mv8hbWlpqBgcHbaytrV8lCFVVVT+0tLT8A9PEg8oYUAYCEIDAfBbo6Oi4XVZWZsG/Qjufx8p0bEgQmAq+UT89Pf3L7du3f8r0i7y7u/tpTk6OLn8Tj/r6+q9NTEz2MU08WBwqQkEAAhCYkwK3b9++npiY6HH06NGpOTmAWew0EgQWsePj47+ze/fuvzNNECYmJ8dPRUUtO3LkSD+Px5Nsa2vL1tPT82Qal8WhIhQEIACBOSXAP8UxMzPzmK+v78fYA2Hm6UOCMLMR5RKnTp2KjIiIiJKWlpakXGmagpOTk+Pp6elagYGBvVlZWcvMzc0rtLW1V+EKAhNV1IUABLgswE8QYmNjP9u/f/+XXLagOnYkCFSlKJSLi4uzCgwMvKGgoKDI5K/9ycnJyfLy8vWOjo510dHRxoGBgcWLFi1awiQmhe6jCAQgAIF5K0AShNHR0bEzZ84EHjp06OK8HSiLA0OCwCJmZmam3saNG6uUlZVVmISdmpqaKigocHNzcys4ffr0tpCQkItSUlKMrkow6Q/qQgACEJjrAmQHxZGRkaGrV69a+fr6ts718cxG/5EgsKicn5+/wszMrHrp0qVqTP7a5/F4U5cvX966devWK1euXPnY3d39/5jEY3GICAUBCEBgTgqQKwgDAwNPGxoazJycnHDMM4VZRIJAAYlqER6PJ9Xb21u7dOlSRlsiT01N8dLT0/8tICDgjw0NDX9cu3btZ1T7gHIQgAAEIPBtAZIgDA4OtqmoqOjDh5oAEgRqTpRLdXZ21mloaJgx+YufLGTyyqS/v/9n7e3t11avXu1KuQMoCAEIQAAC3xIgn6sdHR3Fq1evdgIPNQEkCNScKJdqa2vL09PT20y5wjQFyb2yvMuX/+65deunjx8/LtfW1l7HJB7qQgACEOC6APlcbWxsPGdmZhbCdQuq40eCQFWKYrnGxsbjxsbGhykWn7YYyXRv3rx5fWho6JCZmVmJmpqaGpN4qAsBCECA6wIkQbh69eoXW7Zs+THXLaiOHwkCVSmK5SoqKv5ubW39HYrFpy1GFnLrnTstlRUV3w0ICEhbuHChIpN4qAsBCECA6wLkc/XcuXMRYWFhcVy3oDp+JAhUpSiWy8rK+hcvL6+/MnkGgSzkhw8ftl2/fv3LsLCwv2GDJIr4KAYBCEDgPQJkD4S4uLiAw4cPZwGJmgASBGpOlEudP39+565duy4wSRBIYyMjI4OXL1/O8vb23o0EgTI/CkIAAhCYVqC/v/9ZUVGRlY+Pz30QURNAgkDNiXKp48eP74iMjEyRkZGRolzpPQXLysoabW1tTZgmG0z7gfoQgAAE5rpAV1fXg7t371pjDwTqM4kEgboVpZLx8fGrvb29K5SVlRk/WNjb28tTVVWVRIJAiR6FIAABCLxX4FFnZ8UKbW07CQkJHpioCSBBoOZEudSVK1eWW1hYVKmpqalTrvSegvzDRZAgMJVEfQhAgOsCbW1tWfr6+j5cdxBk/EgQBNGiUDY/P3+xgYFB6fLly40oFP9gEZIgIDlgqoj6EIAABCQkGhoavjQzM8OutAIsBiQIAmBRLfrgwYP8FStWuFEtj3IQgAAEICBcgRs3bvzM1dX118JtZX5FR4IghPlsbW29smbNGg/89S8EXISEAAQgQEPgwoUL3rt27cqmUZWzVZAgCGHqGxsb/2RkZPQDcosArygKARghIQABCFAUIPvKjI+Pj8XHx2+OjIwsoFgNxSQkJJAgCGEZ1NXV/dLU1PQoCY2rCEIARkgIQAACFAXIH2o9PT1dBQUFVjt37uykWA3FkCAIZw0Ul5X9m4Ot7e/xkKFwfBEVAhCAAFWB16c4Ng8MDDhYWFg8p1oP5XAFQShrIC0tbYuvr28uriAIhRdBIQABCFAWIAnC3bt3s/X19b0pV0LBVwK4xSCEhRAdHe0WERGRT24v4BaDEIAREgIQgABFAfIMQlNTU5ypqWkExSoo9loACYIQlkJUVNS6PSEhRQry8opIEIQAjJAQgAAEKAqQKwj19fU/tLCw+BPFKiiGBEF4ayAhIWGZu7s72U1xhfBaQWQIQAACEJhJgCQIZWVlHzs4OHw1U1n8+9sCuIIghBVBEgQHB4cqbW3tFXjNUQjACAkBCECAogBJENLS0uwCAgLKKVZBMVxBEN4ayM/Pl9HU1Mw0NDT0RIIgPGdEhgAEIDCTwNjY2GhsbKzt4cOHa2cqi3/HFYRZWQP19fWJa9euDcIzCLPCjUYgAAEITCvQ1dXVUVJSYhUYGNgLIsEEcItBMC/KpauqqmIsLS0jkCBQJkNBCEAAAqwLtLW11bW0tDh7e3sPsB58ngdEgiCkCb5169a/WlhY/AUJgpCAERYCEIAABYGqqqozVlZW4ZKSkjwKxVHkDQEkCEJaDuXl5Yetra2PI0EQEjDCQgACEKAgUFRUdMzZ2fk7FIqiyDsCSBCEtCRKSkoC7ezskpAgCAkYYSEAAQhQECgrK4uwt7ePo1AURZAgzM4aSEhIMA8KCqpFgjA73mgFAhCAwHQCpaWlOx0cHJKhI7gAriAIbkapxsmTJ80OHjxIXquRpFQBhSAAAQhAgHWBzMxME19f3ybWA3MgIBIEIU1yVFSU9s6dO6tVVFTUhdQEwkIAAhCAwAcEJicnx0+cOGH48ccf3wOU4AJIEAQ3o1QjISFBxc7OrmrlypV6lCqgEAQgAAEIsCZAdlDs7Oy8n5ubaxkZGdnHWmAOBUKCIKTJTktLW2RsbFxmaGhoIqQmEBYCEIAABD4g0NjYeLuystI2IiJiGFCCCyBBENyMUg0ejydVXl4ea2trG0apAgpBAAIQgABrAuSY5/z8/Nhnz54dCA4OnmQtMIcCIUEQ4mTn5+d/5ebmdkSITSA0BCAAAQhMI0AShPT09D8FBAT8EED0BJAg0HOjVCs3N/d3mzdv/gledaTEhUIQgAAEWBOYmpri5eTkhHh7e59nLSjHAiFBEOKE37hxY6ezs/MF0gSSBCFCIzQEIACBdwQmJyenrl+/7r5p06YbwKEngASBnhulWjdu3PBxdnbORIJAiQuFIAABCLAmMD4+PllUVGTs7u5+h7WgHAuEBEGIE15UVORgb29fTK4e4AqCEKERGgIQgMA7AhOTk2OnoqLUjxw50g8cegJIEOi5UaoVExOzfO/evQ9JYSkpKUp1UAgCEIAABJgLdHd3P0pNTTU8cuTIC+bRuBkBCYIQ5z06OlozIiKiE1cQhIiM0BCAAASmEWhsbKwqKCiwP3LkyDiA6AkgQaDnRqkW2U3R1dW1edmyZRq4xUCJDIUgAAEIsCJw6dKlC4ODg3uwBwJ9TiQI9O1mrJmfny+/fPnyKn19fRMkCDNyoQAEIAAB1gRiY2N/sW/fvl+xFpCDgZAgCHHSo6Oj5a2srMrMzc0tkCAIERqhIQABCLwhMDExMRkbG7vv4MGDZwBDXwAJAn27GWsmJCRIKygoRPn4+OxDgjAjFwpAAAIQYEVgbGxsJCMjwzooKKiBlYAcDYIEQcgTf+bMmV+HhIR8jgRByNAIDwEIQOC1wMuXLwcrKipMXV1dHwCFvgASBPp2lGqeOnXqZ/v37/8vSWQIlLxQCAIQgAATAXIGw4sXL7qUlJS0JSUleUxicb0uEgQhr4Dk5GQPX1/fHBkZGRkhN4XwEIAABDgvwOPxJLq7u9s0NTX1OY/BEAAJAkPAmapnZWWt9/DwKJOTk1swU1n8OwQgAAEI0BcgyQH5aWlpyTY2NvamHwk1iQASBCGvg4KCAkMbG5taOTk5OSE3hfAQgAAEOC9AkoRr167FeHh47Oc8BkMAJAgMAWeqnpOTo+jq6vpYTk5Oeaay+HcIQAACEGAmQBKEs2fP/svevXv/H7NIqI0EQchr4NixYwvCw8O7FRQUFgu5KYSHAAQgwHkBcopjbGxsxKFDh85yHoMhABIEhoAzVSd7ITg6OjYtX74cD8zMhIV/hwAEIMBAgFw9GBoaGsjNzSV7ILQyCIWqeAZB+Gvg6NGjUsHBwfkmJiYuwm8NLUAAAhDgtsCzZ896a2trLd3d3V+dpIsf+gK4gkDfjlJNkiD4+Phctra2dqdUAYUgAAEIQIC2QG9vb8PSpUvNsQcCbcJ/VESCwNxwxgjJycm/DwgI+LcZC6IABCAAAQjQFiC3GB4+fFi5cuVKG9pBUBEJwmyugdjY2E/Dw8O/nM020RYEIAABLgo0NTV9bWJiEsnFsbM9ZlxBYFt0mnjHjx8/fODAga+kpKSksOPyLICjCQhAgLMCxcXFf3ZycvqUswAsDhwJAouY7wt17ty5dTt27CiWl5dfiARhFsDRBAQgwEkBcoshJSVlz86dO89zEoDlQSNBYBl0unAZGRkGbm5uVYqKikpIEGYBHE1AAAKcFJiYmJiMiYkJOHToUAYnAVgeNBIElkGnC3flypXlVlZWtSoqKqpIEGYBHE1AAAKcFBgYGHh648YNa19f3w5OArA8aCQILINOF47H40n29/ffUVZW1kOCMAvgaAICEOCUAP+Qpu7u7s6WlpYNLi4unZwCENJgkSAICfbdsN3d3a1Lly7Vl5KSmqUW0QwEIAABbgk8evSosLi42C04OHiSWyMXzmiRIAjH9VtR29raLuvq6m7CFYRZAkczEIAAZwT4VxDutLXlGBoYeHFm4EIeKBIEIQPzw99ubDxrbGQUggRhlsDRDAQgwBkBkiCQ/5qamn5ramr6OWcGLuSBIkEQMjA/fHFxcYy9vX0EEoRZAkczEIAAZwT4CcLNmzc/t7W1/S1nBi7kgSJBEDIwP3xSUtJ3/f39/x+eQZglcDQDAQhwRmBqakqC/PGVlpa2OSAg4ApnBi7kgSJBEDIwP3xsbGx4WFhYLBKEWQJHMxCAAGcEyBWEyampqZivv3Y/dOjQDc4MXMgDRYIgZGB++JMnT/ru3bs3SU5ObsEsNYlmIAABCHBCgCQIz54968zLy7MOCQl5zIlBz8IgkSDMAjJpIikpSW/z5s2VysrKS2apSTQDAQhAgBMC5BbDo0eP2ltaWmw2b97cy4lBz8IgkSDMAjJpIi8vb+X69eurly5dqjpLTaIZCEAAApwQIFcQWlpasjo7O/3c3d0nODHoWRgkEoRZQCZNtLa2KisqKlZqaWkZzFKTaAYCEIAAJwRIgnDr1q14KyurUE4MeJYGiQRhlqBJM3fu3EnR09PzJ4sZDyvOIjyaggAE5rUAucVQV1f3r5aWln+b1wOd5cEhQZhF8PT09GBvb++zkpKS0kgQZhEeTUEAAvNagCQIlZWV++3s7GLm9UBneXBIEGYRPCMjY6GRkVH6mjVrNiFBmEV4NAUBCMxLAf4GSUNDQ0M5OTnrg4OD78zLgYpoUEgQZhk+Ly/P3NTUNFVLS0tvlptGcxCAAATmlcDk5DdnMhUXF/+iq6vrNzikid3pRYLArueM0cjRz/n5+bZGRkbRWlpaJvwK/C2YSUaM7ZhnZEQBCECAgwL8z0f+4Uzj4+OjdXV1cYODgz9wd3cf4iCJUIeMBEGovO8Pnp2dvXr16tVfrFixwktRUVGJlERyIKLJQLMQgMCcEhgdHR199uxZQ0VFxe/9/PwuSEpK4nhnIcwgEgQhoAoSMi4uzlFNTS1g1apVFsuWLTOSlpaWFaQ+ykIAAhDgggCPx5vq6+tru3fv3u0nT56kbdy48bqOjs5LLoxdVGNEgiAqebQLAQhAAAIQEGMBJAhiPDnoGgQgAAEIQEBUAkgQRCWPdiEAAQhAAAJiLIAEQYwnB12DAAQgAAEIiEoACYKo5NEuBCAAAQhAQIwFkCCI8eSgaxCAAAQgAAFRCSBBEJU82oUABCAAAQiIsQASBDGeHHQNAhCAAAQgICoBJAiikke7EIAABCAAATEWQIIgxpODrkEAAhCAAAREJYAEQVTyaBcCEIAABCAgxgJIEMR4ctA1CEAAAhCAgKgEkCCISh7tQgACEIAABMRYAAmCGE8OugYBCEAAAhAQlQASBFHJo10IQAACEICAGAsgQRDjyUHXIAABCEAAAqISQIIgKgl2mBUAAANXSURBVHm0CwEIQAACEBBjASQIYjw56BoEIAABCEBAVAJIEEQlj3YhAAEIQAACYiyABEGMJwddgwAEIAABCIhKAAmCqOTRLgQgAAEIQECMBZAgiPHkoGsQgAAEIAABUQkgQRCVPNqFAAQgAAEIiLEAEgQxnhx0DQIQgAAEICAqASQIopJHuxCAAAQgAAExFkCCIMaTg65BAAIQgAAERCWABEFU8mgXAhCAAAQgIMYCSBDEeHLQNQhAAAIQgICoBJAgiEoe7UIAAhCAAATEWAAJghhPDroGAQhAAAIQEJUAEgRRyaNdCEAAAhCAgBgLIEEQ48lB1yAAAQhAAAKiEkCCICp5tAsBCEAAAhAQYwEkCGI8OegaBCAAAQhAQFQCSBBEJY92IQABCEAAAmIsgARBjCcHXYMABCAAAQiISgAJgqjk0S4EIAABCEBAjAWQIIjx5KBrEIAABCAAAVEJIEEQlTzahQAEIAABCIixABIEMZ4cdA0CEIAABCAgKgEkCKKSR7sQgAAEIAABMRZAgiDGk4OuQQACEIAABEQlgARBVPJoFwIQgAAEICDGAkgQxHhy0DUIQAACEICAqASQIIhKHu1CAAIQgAAExFgACYIYTw66BgEIQAACEBCVABIEUcmjXQhAAAIQgIAYCyBBEOPJQdcgAAEIQAACohJAgiAqebQLAQhAAAIQEGMBJAhiPDnoGgQgAAEIQEBUAkgQRCWPdiEAAQhAAAJiLIAEQYwnB12DAAQgAAEIiEoACYKo5NEuBCAAAQhAQIwFkCCI8eSgaxCAAAQgAAFRCSBBEJU82oUABCAAAQiIsQASBDGeHHQNAhCAAAQgICoBJAiikke7EIAABCAAATEWQIIgxpODrkEAAhCAAAREJYAEQVTyaBcCEIAABCAgxgJIEMR4ctA1CEAAAhCAgKgEkCCISh7tQgACEIAABMRYAAmCGE8OugYBCEAAAhAQlQASBFHJo10IQAACEICAGAsgQRDjyUHXIAABCEAAAqISQIIgKnm0CwEIQAACEBBjASQIYjw56BoEIAABCEBAVAJIEEQlj3YhAAEIQAACYiyABEGMJwddgwAEIAABCIhK4FWCEBcXt05VVfWJqDqBdiEAAQhAAAIQEC+BZ8+eafx/NdJ7u1l8ZSsAAAAASUVORK5CYII=;" parent="1" vertex="1">
                    <mxGeometry x="1118" y="376" width="138" height="138" as="geometry"/>
                </mxCell>
            </root>
        </mxGraphModel>
    </diagram>
</mxfile>